<?xml version="1.0" encoding="UTF-8"?>
<!DOCTYPE svg PUBLIC "-//W3C//DTD SVG 1.1//EN" "http://www.w3.org/Graphics/SVG/1.1/DTD/svg11.dtd">
<!-- Creator: CorelDRAW -->
<svg xmlns="http://www.w3.org/2000/svg" xml:space="preserve" width="2.48961in" height="1.48in" style="shape-rendering:geometricPrecision; text-rendering:geometricPrecision; image-rendering:optimizeQuality; fill-rule:evenodd; clip-rule:evenodd"
viewBox="0 0 0.928323 0.55186"
 xmlns:xlink="http://www.w3.org/1999/xlink">
 <defs>
  <style type="text/css">
   <![CDATA[
    .fil0 {fill:#040405}
    .fil2 {fill:#F9CBC8}
    .fil3 {fill:#FEFE03}
    .fil1 {fill:white}
   ]]>
  </style>
 </defs>
 <g id="Layer_x0020_1">
  <metadata id="CorelCorpID_0Corel-Layer"/>
  <g id="_486531416">
   <path id="_545355080" class="fil0" d="M0.256531 0c0.0360576,0.075913 0.130735,0.0763652 0.164661,0.08877l0.000302413 -0.00339848c0.000600422,-0.0215418 0.00359079,-0.0449627 0.00353207,-0.0652669 0.00568126,0.00237673 0.0108957,0.0171964 0.0138097,0.0231904 0.000682631,0.00237086 0.00324287,0.0042147 0.00545665,0.00232682 0.0145584,-0.0094394 0.0422953,-0.011706 0.0581338,-0.00530104 0.00208019,0.00149739 0.00464043,0.00171172 0.00714488,0.00172199 0.00253234,-0.00474612 0.0101925,-0.0228924 0.0145701,-0.0242297 -1.46802e-006,0.00194954 -0.000337646,0.0689649 0.00375668,0.0721989 0.0593361,-0.0124151 0.127062,-0.0240932 0.170743,-0.0707691 0.00478723,0.00322085 0.0102879,0.00545665 0.0139888,0.0100868 0.0798987,0.0460431 0.224967,0.319708 0.215226,0.43869 -0.00253821,-0.000571062 -0.00396954,-0.00294045 -0.00583687,-0.00451711 -0.0474524,-0.0281156 -0.0983459,-0.0412353 -0.13645,0.0126118 -0.000358198,0.000682631 -0.00106285,0.00203615 -0.00141958,0.00270704 -0.0147052,-0.0190168 -0.0919409,0.0112392 -0.110218,0.0311852 -0.00153262,0.00148711 -0.00229305,0.00512194 -0.00492082,0.00456262 -0.0673588,-0.0747606 -0.158629,-0.0234253 -0.218188,0.0339921 -0.000480044,0.00165446 -0.00165446,0.00282888 -0.00330893,0.00329865 -0.0122742,-0.0521897 -0.136535,-0.116174 -0.194226,-0.0551478 -0.0268781,-0.0161732 -0.0952513,-0.0886291 -0.144624,-0.0253719 -0.0124841,-0.0487164 -0.0618053,-0.0747401 -0.108462,-0.0630751 -0.00663841,-0.12751 0.151666,-0.363098 0.256329,-0.408265z"/>
   <path id="_484718472" class="fil1" d="M0.496916 0.10912c-0.0011847,0.000190843 -0.00234737,0.000402239 -0.00349977,0.000615102 -0.00154289,0.00109515 -0.00348803,0.00095128 -0.0052658,0.00112891 0.000491788,0.00446133 0.00636095,0.0045406 0.0098064,0.00398128 0.00408111,-0.00121846 0.00701129,-0.00472998 0.00727993,-0.0090122 -0.00257198,0.00158693 -0.00551243,0.00226957 -0.00832076,0.00328691zm-0.0509434 -0.00231507c-0.000782457,0.00748105 0.00758088,0.011731 0.0141004,0.0103995 0.00147536,-0.000905771 0.00296394,-0.00183356 0.00427195,-0.00297422 -0.00567979,-0.00216974 -0.0115959,-0.00370089 -0.0171979,-0.00611579 -0.000290669,-0.000325901 -0.000883751,-0.000985045 -0.00117442,-0.00130801l0 -1.46802e-006z"/>
   <path id="_486531176" class="fil2" d="M0.433191 0.128514c0.00114212,-0.000224608 0.00221378,-0.000637123 0.00322085,-0.0012302 0.0127366,0.00519974 0.0261763,0.00867749 0.0384989,0.0148946 0.00222553,0.00117442 0.00487531,0.00161042 0.00726819,0.000603358 0.00989595,-0.00353354 0.0199916,-0.00658556 0.0296541,-0.0107342 0.0010056,-0.000503532 0.00345426,-0.00214625 0.00317534,0.000234884 -0.00178952,0.00468447 -0.00419268,0.00915754 -0.00735774,0.0130595 -0.00210221,0.00275108 -0.00401358,0.00581485 -0.00401358,0.00939242 0.00442756,-0.00184531 0.00480631,-0.00820773 0.00962731,-0.00987247 -0.00417213,0.0092236 -0.00878906,0.0182593 -0.0142134,0.0268135 -0.00210074,0.0040033 -0.00532159,0.00792733 -0.00993999,0.00897991 -0.00481806,0.00104964 -0.00973888,0.00147536 -0.0146479,0.00189962 -0.00405909,0.000682631 -0.00870979,0.00165446 -0.0122433,-0.0010834 -0.00959501,-0.00609524 -0.0159897,-0.0159016 -0.0215477,-0.025573 -0.00286265,-0.00437325 -0.00522176,-0.00920305 -0.00591467,-0.0144248 0.00221378,0.00125223 0.00315332,0.00376695 0.00491935,0.00550069 0.00248243,0.00279659 0.00583833,0.00459639 0.00838682,0.00732544 0.000603358,0.00353207 0.000290669,0.00784953 0.0033104,0.0103643 -4.55088e-005,-0.00263804 -0.000481512,-0.00535535 -0.00191284,-0.00763666 -0.000201119,-0.00133003 -0.000368474,-0.00266153 -0.000491788,-0.0040033 -0.00299624,-0.0035996 -0.00695403,-0.00639618 -0.00913552,-0.0106344 -0.00267327,-0.00412515 -0.00378016,-0.00893293 -0.00504266,-0.0136071 -0.000403707,-6.60611e-005 -0.00119644,-0.000201119 -0.00160015,-0.000268649zm0.0235501 0.0251135c0.000458024,0.000469768 0.00137554,0.00138728 0.00183356,0.00185705 0.00962731,-0.00138728 0.0196451,0.00212423 0.0290948,-0.0009733 0.00343224,-0.000425727 0.0068865,-0.000681163 0.0103422,-0.000716396 0.000145334,-0.00111717 0.000302413,-0.00222406 0.000447748,-0.00333095 -0.00441582,0.000559317 -0.00866575,0.00201266 -0.0128482,0.00351005 -0.00890063,0.000201119 -0.018707,0.00153262 -0.0267914,-0.00299624 -0.000703184,0.000772181 -0.00437178,0.00187907 -0.00207872,0.00264978zm0.0124782 0.0104553c5.57849e-005,0.000503532 0.000157079,0.00148711 0.000212864,0.00199064 0.00211249,0.00134177 0.00412515,0.0028509 0.00636242,0.00399156 0.00271585,0.00171025 0.00584714,-0.00011157 0.00866575,-0.000569594 0.00178805,-0.00201266 0.00400184,-0.00393577 0.00426021,-0.00681017 -0.00604973,0.00267327 -0.0131946,0.00387999 -0.0195012,0.00139903l0 -1.46802e-006z"/>
   <path id="_483637776" class="fil3" d="M0.255466 0.0127938c0.000537297,0.000615102 0.000537297,0.000615102 0,1.46802e-006l0 -1.46802e-006zm0.0114271 0.0639486c0.00814166,0.0053671 0.0119982,0.0150282 0.0144028,0.0241079 0.00242664,0.0109573 0.00345426,0.0224182 0.00127425,0.0335106 -0.0063815,0.0309151 -0.0168368,0.0398569 -0.0421323,0.0580002 -0.0100971,0.00556675 -0.0195115,0.0127689 -0.0307492,0.0159105 0.00178952,0.00836334 0.00614956,0.0159457 0.00765868,0.0243868 0.00391375,0.0136306 0.00110689,0.0278983 -0.00140784,0.0415069 -0.00812552,0.0384945 -0.0447014,0.0836803 -0.0778919,0.104035 -0.0178893,0.0129759 -0.0414056,0.0201912 -0.0617231,0.00894614 -0.00987247,-0.00637416 -0.0160573,-0.0167399 -0.0240506,-0.0250812 -0.00132122,-0.000369942 -0.00324433,-0.00121846 -0.00391522,0.000569594 -0.00372438,0.00566951 -0.00704211,0.0116913 -0.0114535,0.0168749 -0.00122727,0.0018732 -0.00373172,0.00563721 -0.00544197,0.00582219 -0.00199358,-0.00310781 0.00297862,-0.0124826 0.0043615,-0.0163332 0.00812845,-0.0212467 0.0171641,-0.0421896 0.0283901,-0.0619917 0.00619506,-0.0126133 0.0134075,-0.0246775 0.0198917,-0.0371352 0.011179,-0.0201398 0.0227103,-0.0402797 0.033747,-0.0604811 0.0153042,-0.022866 0.0303661,-0.0472425 0.0455425,-0.0705342 0.00937334,-0.0159369 0.0243619,-0.0304131 0.0323597,-0.0459227 0.00102909,-0.0022035 0.00211396,-0.00449509 0.00196862,-0.00698927 -0.00381246,0.000391963 -0.00760437,0.000939536 -0.0114051,0.00139756 -0.00601596,0.00114066 -0.0121332,0.0015106 -0.0182387,0.00161189 0.000582806,-0.000761905 0.00102909,-0.00178952 0.0021257,-0.00190256 0.00329865,-0.000971832 0.00654152,-0.00213451 0.00989595,-0.0029522 0.018983,-0.00512634 0.0673031,-0.0220086 0.0867911,-0.00735627zm0.400326 0.0235266c0.000549041,0 0.00163391,2.20204e-005 0.00218148,3.22965e-005 0.000145334,0.00262776 0.000268649,0.00526727 0.000412515,0.00790678l0.000560785 -1.46802e-006c0.00105111,0.0106006 -3.37646e-005,0.0212687 0.000949812,0.0318693 0.00117589,0.0180244 0.00328104,0.0303925 0.00515423,0.0468505 0.00178952,0.00808294 0.0023826,0.0163699 0.00381246,0.0245219 0.00460666,0.0297202 0.0115181,0.0590718 0.0204408,0.0877967 0.00372438,0.0125237 0.0067764,0.0252603 0.011317,0.0375154 0.00630517,0.020294 0.0122316,0.0407685 0.0162129,0.0616673 0.000738416,0.0016207 -0.000694376,0.00294045 -0.00200239,0.00356583 -0.00343224,0.00223727 -0.00736948,0.00384769 -0.0101749,0.00693348 -0.0111834,0.0132988 -0.0129524,0.025322 -0.0105228,0.0414277 0.000369942,0.00270704 0.0015884,0.00540086 0.00116268,0.00816369 -0.00228718,8.95495e-005 -0.00886687,-0.0142134 -0.00955978,-0.0168617 -0.00423819,-0.0156668 -0.00826351,-0.0315229 -0.00926911,-0.0477798 -0.00202294,-0.0152528 -0.0016207,-0.0310517 -0.00707735,-0.0456658 -0.00324287,-0.00702156 -0.00743701,-0.0139668 -0.0136644,-0.0186968 -0.00807267,-0.00534361 -0.0184046,-0.00154289 -0.025595,0.00349977 -0.0139683,0.0119101 -0.0126896,0.046623 -0.00986219,0.0641395 -0.00355556,-0.000113038 -0.00646371,-0.00241637 -0.00978438,-0.0033559 -0.00477402,-0.00174401 -0.0100971,-0.00124048 -0.0147698,-0.0032091 -0.0016897,-0.0530001 0.00224608,-0.105934 0.00172052,-0.158936 0.000135058,-0.0235045 -0.00218002,-0.0469518 -0.00532159,-0.0702097 -0.000535829,-0.0037464 -0.00109661,-0.00749133 -0.00126397,-0.0112818 0.00958326,0.00713313 0.0124004,0.0193882 0.0167619,0.029867 0.00649601,-0.00506615 0.0141107,-0.00849839 0.0219382,-0.0109705 0.00720066,-0.00219176 0.015084,-0.00240462 0.0217473,-0.00617158 -0.000491788,-0.0182725 0.000236352,-0.0365876 0.003099,-0.0546575 5.57849e-005,-0.00271585 0.00057987,-0.00537737 0.00139609,-0.00795963zm-0.366947 0.0028054c9.39536e-005,-0.00242224 0.0014093,-0.00211102 0.00258226,0.000358198 0.00117295,0.00737682 0.00206111,0.0100075 0.00143132,0.0198139 -0.000346454,0.00725645 -0.00127425,0.0144806 -0.00131829,0.0217605 0.00560198,0.00121846 0.0113478,0.000255436 0.0169953,-6.75291e-005 0.0112597,-0.000637123 0.0222964,0.0020567 0.0333667,0.00366713 0.00362162,-0.00676466 0.00666336,-0.0138317 0.0080389,-0.0214126 0.000212864,-0.00188935 0.000469768,-0.00375814 0.000716396,-0.005624 0.000603358,-0.000113038 0.00182182,-0.000324433 0.00243692,-0.000425727 -3.37646e-005,0.00503239 0.000177631,0.0100633 -0.000179099,0.0150957 -0.000155611,0.00731223 -0.00136379,0.0146142 -0.002594,0.0218266 -0.00450684,0.0223624 -0.008287,0.0448834 -0.0139888,0.0669786 -0.00294045,0.0142898 -0.00692174,0.0283109 -0.0101191,0.0425345 -0.0123652,0.0491568 -0.0272377,0.100624 -0.0374244,0.149722 -0.00246041,0.0134853 -0.0058721,0.0267694 -0.00887861,0.0401314 -0.000336178,0.000343518 0.000292137,0.00236646 -0.00355556,0.00229159 0.000121846,-0.00152087 0.000268649,-0.00303 0.000458024,-0.00452886 0.00116268,-0.00563575 -0.000212864,-0.0132166 -0.00639618,-0.0152058 -0.00434976,-0.000895495 -0.00885659,-0.000849986 -0.0132504,-0.00149885 -0.00550069,0.000637123 -0.0110249,0.00107313 -0.0165476,0.00158693 -0.000236352,-0.00348803 0.00175429,-0.00641674 0.00311955,-0.00944821 0.0050089,-0.01164 0.00820626,-0.0239391 0.0116282,-0.0361046 0.00676466,-0.0201619 0.0115959,-0.0409373 0.0144248,-0.0620035 0.000234884,-0.00583687 0.00109515,-0.0117515 4.40407e-005,-0.0175546 -0.000872007,-0.00483127 -0.00417066,-0.00968309 -0.00916928,-0.0108237 -0.0103657,-0.00173374 -0.0202044,0.00419268 -0.0276855,0.0107797 -0.0102644,0.00829581 -0.0170511,0.0198359 -0.0239963,0.0308491 -0.00689825,0.00878906 -0.0112142,0.0191651 -0.0163259,0.029017 -0.00522764,0.000914579 -0.00876851,-0.000538765 -0.0135616,-0.0200708 -0.000704652,-0.00276282 0.00107313,-0.00534508 0.00209047,-0.00779374 0.010768,-0.0214361 0.0245542,-0.0411385 0.0362499,-0.0620358 0.00360106,-0.00700101 0.00777319,-0.0136981 0.011273,-0.0207535 0.00748105,-0.0135411 0.0159883,-0.0265448 0.0223859,-0.0406569 0.00269383,-0.0071669 0.00638297,-0.0139095 0.00930287,-0.0209869 0.00557849,-0.0129935 0.0101852,-0.0263672 0.0154187,-0.0394943 0.00503239,-0.0159339 0.0106784,-0.0319134 0.0120877,-0.0486856 0.000578402,-0.00373319 0.000808882,-0.00744288 0.000939536,-0.0112377zm0.284484 0.0328749c0.00129627,0.000816222 0.00110689,0.00244867 0.00124048,0.00379044l0 -1.46802e-006c0.00175576,0.00512341 0.00209194,0.0105786 0.00187907,0.0159574 -0.000905771,0.0167384 -0.00178952,0.0335003 -0.00230333,0.0502622 -0.00114066,0.0141664 -0.000783925,0.0284004 -0.00083971,0.0426021 9.10175e-005,0.0205068 -0.000391963,0.0410254 0.000939536,0.0614985 6.75291e-005,0.0222288 0.000481512,0.0444694 7.78053e-005,0.0666982 -0.000129186,0.0221319 -0.00232388,0.0425052 -0.00295954,0.0637666 -0.000127718,0.00420442 -0.000524085,0.00840004 -0.000450684,0.0126162 -0.00566804,-0.000760437 -0.0104435,-0.00505441 -0.0163362,-0.00486357 -0.00723296,0.000300945 -0.0138772,0.00391229 -0.0209663,0.00486357 0.00141077,-0.0148608 0.00123167,-0.0298215 0.00295367,-0.0446602 0.000569594,-0.00758088 0.000748693,-0.0152175 0.0019789,-0.0227324 0.000447748,-0.0111482 0.00202294,-0.0221833 0.00272759,-0.0333198 -0.000290669,-0.00974034 0.00309753,-0.0200165 -0.00117295,-0.0293194 -0.0149841,0.0233137 -0.0244103,0.0495121 -0.0373921,0.0738886 -0.000491788,-3.37646e-005 -0.00148711,-0.000123314 -0.00199064,-0.000167355 -0.000234884,-0.00306377 -0.0017998,-0.00573704 -0.00280686,-0.0085762 -0.00383595,-0.0121655 -0.00802863,-0.0242312 -0.0106564,-0.0367212 -0.00113919,-0.00406936 -0.00152087,-0.00876558 -0.00479604,-0.011797 -0.00185558,-0.0019789 -0.00440554,-0.00433801 -0.00734746,-0.00325314 -0.00363336,0.00189962 -0.00626113,0.00529957 -0.00855418,0.0086085 -0.00487384,0.00780549 -0.0101073,0.0153981 -0.0143455,0.0235823 -0.00488559,0.00987393 -0.0105771,0.0193794 -0.0145584,0.0296879 -0.0042925,0.00869511 -0.0104142,0.0271702 -0.0153966,0.0341595 -0.000234884,-2.20204e-005 -0.000704652,-5.43169e-005 -0.000939536,-7.78053e-005 -0.00467419,-0.00374493 -0.00824149,-0.00860996 -0.0117178,-0.013428 -0.00293018,-0.00491054 -0.00219176,-0.010881 -0.00349977,-0.0162701 0.00495312,-0.0137202 0.012948,-0.0260545 0.0202499,-0.0385988 0.00759116,-0.0139433 0.0171304,-0.0267239 0.0244088,-0.040836 0.00546839,-0.00902395 0.0113948,-0.0177792 0.0165153,-0.0270263 0.00860996,-0.0114946 0.0148608,-0.0244881 0.0220497,-0.0368768 0.00697752,-0.0115401 0.0115519,-0.0242753 0.0171862,-0.0364745 0.00170144,-0.00506615 0.00325461,-0.0101866 0.00464043,-0.0153409l1.46802e-006 0c0.000581338,-0.000146802 0.00174255,-0.000436003 0.00232535,-0.000581338 0.000615102,0.00732251 -0.00250445,0.0141899 -0.00328838,0.0213686 -0.00408111,0.023302 0.00114066,0.046783 0.00417066,0.0698618l0.000515277 9.98257e-005c0.000603358,0.00721387 0.000502064,0.0146259 0.00177778,0.0217047 0.00176603,-0.00604973 0.00467419,-0.011662 0.00693201,-0.0175209 0.00518947,-0.0127703 0.0093704,-0.0259532 0.0153086,-0.0384094 0.00303,-0.00820773 0.00655326,-0.0162481 0.00873181,-0.0247465 0.0050779,-0.014278 0.00968456,-0.0287806 0.0128702,-0.0436077 0.00121259,-0.00661932 0.00959501,-0.0581631 0.0128379,-0.0598103zm-0.367654 0.000961556c-0.00429397,0.00601596 -0.00892265,0.0117633 -0.0135308,0.0175326 -0.0083193,0.0112715 -0.0179231,0.0215256 -0.0263995,0.0326738 -0.00213451,0.00290669 -0.00465217,0.00554473 -0.00638444,0.00873181 0.0065973,-3.37646e-005 0.0131374,-0.00124195 0.0196231,-0.00235912 0.00997523,-0.00251619 0.0193001,-0.00746931 0.027317,-0.0138655 0.00979613,-0.00712286 0.0176897,-0.0177117 0.0201384,-0.0297084 0.00174548,-0.00965079 -0.00436003,-0.0178248 -0.00944821,-0.0253058 -0.00463015,0.00319883 -0.0071669,0.00853216 -0.0113155,0.0123006zm0.155581 0.0536504c0.000537297,0.00641967 0.000487384,0.0128496 0.000447748,0.0192987 0.0124562,0.000525553 0.0249344,-0.000525553 0.0373686,0.000547573 0.0278983,0.000571062 0.0549144,0.0091135 0.0827452,0.0103995 0.0066296,-0.00851454 0.0227294,-0.0285898 0.0256156,-0.0387236 0.000296541,-0.000870539 0.00120084,-0.00105991 0.000963024,0.00110689 -0.00205817,0.0169806 -0.0164375,0.0346586 -0.023023,0.0516715 -0.00172199,0.00469621 -0.0040033,0.0091913 -0.00528929,0.0140446 -0.000591614,0.00022314 -0.00177778,0.000681163 -0.00237086,0.000917515 -0.0142677,0.000983577 -0.0287146,-0.00167795 -0.0428252,0.00140784 -0.00360106,0.00100706 -0.0073137,0.00249417 -0.00991797,0.0052658 -0.00573704,0.00788476 -0.00928085,0.0172537 -0.0107914,0.0268604 -0.00269383,0.0109573 -0.00355556,0.0222729 -0.00626113,0.0332302 -0.00131975,0.00657528 -0.00236939,0.0132401 -0.00461841,0.0195908 -0.0045729,0.0173432 -0.00846463,0.0348979 -0.0142119,0.0519049 -0.00449509,-0.00102762 -0.00866575,-0.00347775 -0.0133957,-0.00335444 -0.00477402,-8.95495e-005 -0.00986219,0.00129773 -0.0128922,0.00523351 -0.00402239,0.00488999 -0.015426,0.0228748 -0.0205744,0.0229217 0.000559317,-0.00156491 0.0011524,-0.00310781 0.00180127,-0.00462868 0.00490761,-0.0174886 0.00986219,-0.0349654 0.0151955,-0.052341 0.00542288,-0.0176559 0.00900193,-0.0358829 0.0156873,-0.0531352 0.0029522,-0.0109705 0.00692174,-0.021715 0.00845435,-0.0330203 0.0004683,-0.00602624 0.00332067,-0.0121435 0.000358198,-0.0179789 -0.00900193,-0.00480925 -0.0195027,-0.00261749 -0.0292078,-0.0040033 -0.00354528,-0.000571062 -0.00714488,-0.000571062 -0.0107122,-0.0009733 -0.000212864,-0.000368474 -0.000660611,-0.00109661 -0.000882283,-0.00146509 0.00541261,-0.0180963 0.00997963,-0.0364246 0.0144145,-0.0547779l0.00225635 -0.00888595c0.0017264,0.00010423 0.00169557,0.00568419 0.00166621,0.00888595zm0.33914 -0.010053c0.000436003,0.000199651 0.00129773,0.000591614 0.00173227,0.000782457 0.00635214,0.00952748 0.0103099,0.0204848 0.0170981,0.0297319 0.00455088,0.00560198 0.00765868,0.0125237 0.0136629,0.0167839 0.00554767,0.00451711 0.0106241,0.00955978 0.0152851,0.0149724 0.00804184,0.00771594 0.0170188,0.0143573 0.0257859,0.0212335 0.00475346,0.00228718 -0.0165182,-0.0408287 -0.01855,-0.0456541 -0.00927058,-0.0190432 -0.0171539,-0.0387456 -0.0271599,-0.0574291 -0.00443931,-0.010031 -0.0106006,-0.0191093 -0.0160352,-0.028581 -0.00467419,-0.00913405 -0.0108678,-0.0173653 -0.0169968,-0.0255378 -0.00194513,-0.00285237 -0.0045729,-0.00546839 -0.00512047,-0.0090122 0.00547867,0.000982108 0.0109236,0.00463896 0.0165711,0.00221378 0.00220204,-0.00498835 0.00549041,-0.00940417 0.00761464,-0.0144366 0.000515277,0 0.00154289,-1.17442e-005 0.0020567,-1.17442e-005 0.00588237,0.00922507 0.0100971,0.0194337 0.0162584,0.0285032 0.00754858,0.0127351 0.0150854,0.0255055 0.0234708,0.0377253 0.00339995,0.0057253 0.0063404,0.0117075 0.0099855,0.0172772 0.00868924,0.0162466 0.0171421,0.0326063 0.0250357,0.0492434 0.00673089,0.0153409 0.0147595,0.0301018 0.0206757,0.0458009 0.0180479,0.0430263 0.0355673,0.0864006 0.0575627,0.127605 0.00287733,0.00658262 0.0154598,0.0207608 0.01467,0.0266344 -0.00436003,-0.00459492 -0.00727993,-0.0107459 -0.0131388,-0.0138317 -0.00707294,-0.00379191 -0.0142692,-0.00857473 -0.0189184,0.0042147l-0.00125223 0.000571062c-0.00362455,-0.00291843 -0.00532306,-0.00771447 -0.00821947,-0.0113493 -0.00624938,-0.0103995 -0.0132944,-0.0202837 -0.0203175,-0.0301797 -0.00376695,-0.00610551 -0.0090122,-0.0111027 -0.0130816,-0.016985 -0.00924709,-0.0123226 -0.0207432,-0.0227647 -0.032919,-0.0321248 -0.00640646,-0.00589265 -0.014234,-0.00982842 -0.0213231,-0.0147815 -0.00161042,-0.00109661 -0.00324433,-0.00215946 -0.0050779,-0.00280686 0.0009733,0.00928085 0.00275108,0.0185162 0.00552418,0.0274388 0.00278484,0.00921479 0.00485329,0.0186292 0.00768217,0.0278426 0.00468593,0.0135748 0.00840885,0.0274741 0.0115622,0.0414732 -0.00781576,0.00149739 -0.0161908,0.00264978 -0.0225312,0.00791706 -0.00171172,0.00172199 -0.00300798,0.00380072 -0.00434976,0.00582512 -0.000772181,0.00138582 -0.00148711,0.00280686 -0.00222553,0.00421617 -0.000648867,1.02762e-005 -0.00194513,4.40407e-005 -0.00260428,5.57849e-005 2.20204e-005,-0.00165593 5.57849e-005,-0.00332067 5.57849e-005,-0.00496486 -0.00095128,-0.00376842 -0.00086173,-0.00768217 -0.0015884,-0.0114726 -0.00334416,-0.0270146 -0.0115842,-0.0531014 -0.0190315,-0.0791999 -0.00352179,-0.0124121 -0.00864226,-0.024331 -0.0118528,-0.036843 -0.00692027,-0.0227441 -0.0116958,-0.0460798 -0.0195012,-0.0685553 -0.000826498,-0.00263804 -0.00164272,-0.00528929 -0.00239288,-0.00793908 0.00790238,-0.00168382 0.0146347,-0.00642261 0.0118983,-0.0263657zm-0.0708014 0.0800044c-0.000459492,0.00534508 -0.000214332,0.0107122 -0.00061657,0.0160573 -0.000714928,0.0128247 -0.0035996,0.0253601 -0.00582512,0.0379616 0.0115064,-0.00251619 0.0230348,-0.00569153 0.0336354,-0.0109353 -0.00202441,-0.00783925 -0.00299771,-0.0158899 -0.00485329,-0.0237614 -0.00395779,-0.019121 -0.0102982,-0.037649 -0.0171201,-0.0559083 -0.00127425,-0.00343371 -0.00193486,-0.0071346 -0.00389027,-0.0102762l0 0c-0.00125223,0.0155875 -0.000380218,0.0312748 -0.00133003,0.0468623zm-0.490228 -0.0257403c-0.0215066,0.0216857 -0.0399273,0.0537899 -0.0491098,0.0831357 -0.00238114,0.00675291 -0.00442756,0.0140328 -0.00304175,0.0212232 0.00252794,0.00860996 0.00697752,0.0175884 0.0155434,0.0215242 0.0342681,0.00587063 0.0700644,-0.0810805 0.0598558,-0.114902 -0.00165593,-0.00422644 -0.00431746,-0.00869951 -0.00885659,-0.0102321 -0.00479604,-0.000211396 -0.0095818,-0.00129627 -0.014391,-0.000748693zm0.156779 -0.0571722c-0.00106285,0.0055462 -0.0040033,0.0104553 -0.0062303,0.0155655 -0.0050412,0.0117295 -0.00989449,0.0235266 -0.0149034,0.0352664 -0.00646371,0.0133179 -0.0127469,0.0267357 -0.0189639,0.0401769 -0.00100706,0.00203468 -0.00172199,0.00420295 -0.00208019,0.00646371 0.0074238,0.000311221 0.014692,-0.00149885 0.0220732,-0.00184531 0.00679695,-0.00107459 0.0137422,-0.0014093 0.0204173,-0.00318855 0.00646224,-0.0111585 0.0100178,-0.0236704 0.0132607,-0.0360606 0.00230333,-0.0102864 0.00412662,-0.0207858 0.00381393,-0.0313541 8.95495e-005,-0.00840738 -0.000425727,-0.016916 -0.00298596,-0.0249784 -0.00467419,-0.00162217 -0.00962731,-0.000491788 -0.0144013,-4.55088e-005z"/>
  </g>
 </g>
</svg>
