<?xml version="1.0" encoding="UTF-8"?>
<svg xmlns="http://www.w3.org/2000/svg" width="800" height="800" viewBox="0 0 800 800" style="background: transparent;">
<g>
<path d="M 328.00 468.51 C288.04,499.22 279.00,505.98 279.00,505.11 C279.00,504.65 283.39,497.92 288.75,490.15 C294.11,482.38 308.85,460.79 321.50,442.17 L 344.50 408.32 L 361.63 396.91 C371.05,390.63 378.66,385.38 378.53,385.24 C378.41,385.09 361.92,390.38 341.90,396.98 C321.88,403.59 304.97,408.99 304.33,409.00 C303.69,409.00 307.33,401.24 312.42,391.75 C317.51,382.26 324.87,368.42 328.78,361.00 C332.68,353.58 340.61,338.73 346.40,328.00 C352.19,317.27 356.57,308.38 356.14,308.23 C355.71,308.07 343.97,312.03 330.05,317.02 C316.14,322.01 304.57,325.90 304.34,325.68 C303.44,324.78 371.76,206.61 373.60,205.89 C376.25,204.85 525.00,204.81 525.00,205.85 C525.00,206.31 524.04,207.55 522.86,208.60 C520.74,210.49 502.06,231.07 492.50,242.05 C486.39,249.06 450.06,290.22 436.05,306.00 C425.68,317.67 422.42,321.80 423.11,322.38 C423.33,322.56 432.05,319.39 442.50,315.34 C473.13,303.45 488.62,297.47 503.00,291.97 C510.42,289.13 520.43,285.27 525.23,283.40 C530.03,281.53 534.45,280.00 535.06,280.00 C536.32,280.00 531.62,285.07 487.70,330.95 C464.28,355.42 456.17,364.50 456.92,365.40 C457.48,366.08 461.99,369.53 466.95,373.07 C476.20,379.67 478.22,382.27 475.85,384.50 C474.56,385.71 458.98,389.16 446.62,390.96 C443.38,391.43 440.46,392.24 440.12,392.76 C439.78,393.28 433.70,401.65 426.62,411.35 C410.76,433.09 409.17,433.64 405.63,418.65 C404.64,414.44 403.53,411.01 403.16,411.02 C402.80,411.03 398.00,414.53 392.50,418.80 C387.00,423.07 378.45,429.67 373.50,433.47 C368.55,437.27 361.58,442.64 358.00,445.41 C354.42,448.18 340.92,458.57 328.00,468.51 ZM 263.24 510.23 L 257.50 518.96 L 248.00 518.95 C239.65,518.94 237.62,518.56 231.20,515.85 C218.44,510.46 209.47,499.89 207.04,487.39 C205.75,480.73 205.67,205.04 206.95,198.25 C209.37,185.49 218.46,174.39 230.37,169.65 L 237.24 166.91 L 400.37 166.95 C490.09,166.97 564.85,167.37 566.51,167.85 C576.23,170.66 587.31,179.86 590.78,188.00 C591.17,188.91 591.53,189.72 591.85,190.53 C594.98,198.50 594.98,207.70 594.99,332.82 L 594.99 341.61 C595.00,432.26 594.64,483.63 593.98,487.11 C591.67,499.41 582.04,511.23 570.41,516.05 L 564.50 518.50 L 427.75 518.77 C352.54,518.91 291.00,518.74 291.00,518.38 C291.00,518.35 291.00,518.33 291.00,518.31 C291.00,518.26 291.00,518.23 291.00,518.19 C291.03,517.61 291.76,517.08 303.34,508.25 L 312.84 501.00 L 435.17 500.96 C534.75,500.92 558.20,500.66 561.25,499.57 C567.01,497.52 571.56,493.54 574.15,488.28 L 576.50 483.50 L 576.50 201.45 L 573.95 196.48 C572.40,193.48 569.70,190.33 567.11,188.51 L 562.83 185.50 L 403.30 185.24 C294.13,185.06 242.55,185.31 239.88,186.03 C235.05,187.33 229.51,192.08 226.94,197.12 C225.05,200.83 225.00,204.33 225.00,342.49 C225.00,351.66 225.00,360.24 225.00,368.29 C224.98,479.60 224.98,487.45 228.88,491.78 C229.46,492.42 230.12,492.98 230.88,493.79 C235.98,499.23 239.91,500.39 255.24,500.97 L 268.97 501.50 ZM 420.50 595.75 L 420.50 615.50 L 410.75 615.79 L 401.00 616.07 L 401.00 552.00 L 422.12 552.00 L 442.06 571.66 L 462.00 591.32 L 462.00 552.00 L 482.00 552.00 L 482.00 616.00 L 462.68 616.00 L 442.40 596.00 C431.25,585.00 421.76,576.00 421.31,576.00 C420.87,576.00 420.50,584.89 420.50,595.75 ZM 281.08 600.04 L 280.50 615.50 L 242.43 615.76 C221.49,615.91 204.05,615.72 203.68,615.35 C203.31,614.97 203.00,611.93 203.01,608.58 L 203.01 602.50 L 226.40 585.00 L 249.79 567.50 L 227.14 567.00 L 204.50 566.50 L 203.91 552.00 L 279.09 552.00 L 278.50 565.50 L 255.85 582.50 L 233.20 599.50 L 257.14 599.77 ZM 585.00 600.00 L 585.00 616.00 L 555.75 615.90 C539.66,615.84 525.10,615.46 523.40,615.05 C518.21,613.81 511.70,609.69 509.29,606.10 C507.09,602.84 507.00,601.88 507.00,582.85 L 507.00 563.01 L 510.61 559.01 C516.51,552.48 519.53,552.00 554.68,552.00 L 585.00 552.00 L 585.00 567.00 L 558.72 567.00 C536.56,567.00 532.10,567.24 530.22,568.56 C528.12,570.03 528.00,570.82 528.00,583.06 C528.00,584.36 527.99,585.56 527.98,586.67 C527.92,592.09 527.88,595.32 529.45,597.24 C531.77,600.08 537.59,600.06 551.99,600.01 C553.99,600.01 556.15,600.00 558.50,600.00 ZM 410.72 403.25 C412.17,410.26 413.63,416.00 413.96,416.00 C414.29,416.00 418.79,409.22 423.97,400.94 C429.15,392.66 433.65,385.71 433.97,385.52 C434.30,385.32 441.52,383.95 450.03,382.48 C458.54,381.02 465.83,379.50 466.24,379.12 C466.64,378.74 460.57,374.09 452.74,368.80 C444.91,363.50 429.80,353.28 419.16,346.09 C408.53,338.89 398.97,333.00 397.91,333.00 C394.82,333.00 395.26,335.94 403.53,370.50 C405.50,378.75 407.33,386.62 407.60,388.00 C407.86,389.38 409.27,396.24 410.72,403.25 ZM 350.00 605.25 L 350.00 616.00 L 340.67 616.00 C335.53,616.00 331.03,615.70 330.67,615.33 C330.30,614.97 330.00,609.95 330.00,604.19 L 330.00 593.72 L 325.27 588.11 C319.93,581.77 312.82,573.55 301.55,560.72 L 293.85 551.93 L 305.17 552.22 L 316.50 552.50 L 327.71 565.99 C333.87,573.40 339.32,579.61 339.81,579.77 C340.30,579.93 342.90,577.46 345.58,574.28 C348.26,571.10 350.70,568.28 351.01,568.00 C351.31,567.72 354.42,564.01 357.92,559.75 L 364.27 552.00 L 386.35 552.00 L 384.35 554.25 C379.47,559.73 358.10,584.63 354.25,589.32 L 350.01 594.50 Z" fill="rgb(45,44,49)"/>
<path d="M 0.00 0.00 L 800.00 0.00 L 800.00 800.00 L 0.00 800.00 ZM 257.45 521.09 C256.60,522.45 263.00,521.96 264.59,520.54 C265.20,520.01 265.58,518.20 265.45,516.53 C265.23,513.77 265.49,513.49 268.35,513.37 C270.08,513.30 272.51,512.99 273.75,512.68 C274.99,512.37 276.00,512.43 276.00,512.82 C276.00,513.21 278.44,513.52 281.41,513.51 C284.39,513.51 286.63,513.30 286.38,513.05 C286.14,512.81 286.96,512.03 288.22,511.34 C289.47,510.64 290.02,510.05 289.42,510.04 C288.81,510.02 288.53,508.75 288.77,507.09 C289.26,503.75 292.46,502.28 293.59,504.86 C295.37,508.93 294.08,512.00 290.60,512.00 C289.12,512.00 288.08,512.94 287.32,514.96 C286.34,517.55 286.44,518.01 288.08,518.52 C288.95,518.80 290.04,518.55 291.13,517.86 C291.03,517.99 291.01,518.09 291.00,518.19 C291.00,518.23 291.00,518.26 291.00,518.31 C291.00,518.33 291.00,518.35 291.00,518.38 C291.00,518.74 352.54,518.91 427.75,518.77 L 561.74 518.51 L 560.50 518.80 L 564.50 519.03 C566.70,519.15 569.40,519.40 570.50,519.57 C571.60,519.75 573.74,520.07 575.25,520.28 C576.76,520.49 578.31,520.97 578.68,521.35 C579.55,522.22 583.28,521.06 584.23,519.62 C584.92,518.58 585.35,516.37 585.16,514.87 C585.11,514.52 586.30,513.97 587.79,513.64 C592.68,512.58 593.39,511.52 593.49,505.17 C593.58,499.61 595.25,495.42 596.95,496.47 C597.35,496.72 598.62,496.26 599.77,495.45 C601.53,494.22 601.72,493.49 600.96,490.85 C600.46,489.13 600.29,487.34 600.58,486.87 C600.86,486.41 600.80,484.46 600.44,482.54 C599.88,479.55 599.52,479.18 597.97,480.01 C596.71,480.69 596.04,480.62 595.76,479.79 C595.54,479.13 594.85,481.67 594.23,485.44 C594.18,485.71 594.13,485.99 594.08,486.27 C594.67,478.57 595.00,427.87 594.99,341.61 L 594.99 332.82 C594.98,224.85 594.98,203.20 592.97,194.17 C594.21,198.47 594.98,202.89 594.99,206.22 C595.00,209.81 595.33,210.81 596.37,210.41 C598.61,209.55 601.34,202.53 600.29,200.37 C599.29,198.34 599.37,195.50 600.50,192.75 C600.92,191.72 600.77,191.00 600.13,191.00 C599.48,191.00 599.27,189.89 599.61,188.19 C599.99,186.31 599.65,184.96 598.59,184.07 C597.53,183.19 597.00,183.13 597.00,183.88 C597.00,185.35 593.32,185.33 592.40,183.85 C591.92,183.06 592.14,182.96 593.10,183.54 C594.21,184.21 594.19,184.00 593.01,182.55 C592.19,181.55 591.66,179.66 591.83,178.36 C592.13,176.10 591.28,175.53 588.24,175.93 C586.92,176.10 585.80,174.05 585.61,171.13 C585.34,166.97 579.97,165.32 576.25,168.26 C575.40,168.93 575.00,168.87 575.00,168.09 C575.00,167.21 574.46,167.22 572.81,168.10 C570.71,169.22 570.81,169.37 575.17,171.58 C577.35,172.69 580.04,174.83 582.59,177.32 C577.86,173.03 571.97,169.43 566.51,167.85 C564.85,167.37 490.09,166.97 400.37,166.95 L 314.34 166.93 C320.29,166.92 326.68,166.92 333.54,166.92 C388.23,166.91 430.00,166.52 430.00,166.02 C430.00,165.54 429.21,164.94 428.25,164.69 C427.29,164.44 428.08,164.14 430.00,164.04 C431.92,163.93 432.89,163.60 432.14,163.30 C430.99,162.84 430.99,162.62 432.14,161.89 C433.61,160.96 410.91,160.29 395.12,160.81 C388.27,161.03 385.33,161.53 384.18,162.67 C382.99,163.86 381.42,164.09 377.56,163.63 C374.78,163.29 369.58,162.93 366.00,162.83 L 359.50 162.64 L 367.00 162.00 C373.01,161.49 371.32,161.32 358.50,161.17 C349.70,161.06 341.53,160.71 340.34,160.39 C338.91,160.01 337.48,160.52 336.09,161.91 C333.78,164.22 329.27,164.56 317.90,163.28 C312.09,162.63 311.82,162.51 315.00,161.91 C316.92,161.56 301.85,161.21 281.50,161.15 C257.29,161.07 245.02,161.37 246.00,162.00 C247.17,162.76 246.89,162.97 244.75,162.98 C243.24,162.99 242.00,162.48 242.00,161.83 C242.00,161.19 241.75,160.91 241.45,161.22 C241.15,161.52 239.23,161.38 237.20,160.91 C231.61,159.63 230.52,160.34 230.35,165.40 L 230.20 169.72 C219.12,174.20 210.50,184.19 207.48,195.87 C207.73,193.80 208.04,192.90 208.42,192.00 C209.48,189.52 211.68,185.52 213.33,183.10 C214.97,180.67 215.71,179.06 214.98,179.51 C213.99,180.12 213.84,179.86 214.38,178.44 C214.78,177.41 214.80,176.87 214.42,177.25 C214.04,177.62 212.84,177.45 211.75,176.87 C210.20,176.04 209.93,176.08 210.54,177.07 C211.10,177.98 210.84,178.15 209.61,177.68 C208.55,177.28 208.14,177.42 208.53,178.06 C208.89,178.62 208.63,179.74 207.97,180.54 C207.31,181.34 206.98,183.12 207.24,184.49 C207.51,185.87 207.35,187.00 206.89,187.00 C206.44,187.00 206.35,187.75 206.70,188.66 C207.13,189.78 206.96,190.09 206.17,189.61 C205.53,189.21 205.00,189.38 205.00,189.98 C205.00,190.59 204.44,191.01 203.75,190.93 C199.33,190.35 198.41,193.96 202.50,195.82 C205.29,197.09 205.79,198.58 203.50,198.83 L 200.50 199.17 C198.85,199.35 198.30,206.45 199.87,207.42 C200.34,207.71 201.04,209.87 201.41,212.23 C202.29,217.79 203.33,472.43 202.48,476.93 C202.00,479.53 201.61,480.01 200.90,478.93 C200.25,477.93 200.01,478.70 200.12,481.50 C200.20,483.70 200.16,485.95 200.02,486.50 C199.88,487.05 199.82,489.13 199.88,491.11 C199.99,494.32 200.27,494.69 202.43,494.46 C205.08,494.17 206.06,495.62 206.53,500.50 C207.38,509.48 208.76,512.41 211.61,511.32 C212.32,511.05 213.89,511.75 215.10,512.88 C217.00,514.65 217.11,515.16 215.94,516.57 C214.77,517.98 214.84,518.41 216.47,519.60 C218.10,520.79 218.70,520.77 220.72,519.44 C222.68,518.17 223.65,518.11 226.39,519.10 C229.66,520.28 235.00,519.70 235.00,518.16 C235.00,517.83 233.58,516.96 231.57,516.01 C237.70,518.58 239.81,518.94 248.00,518.95 L 256.88 518.96 C256.76,519.10 256.66,519.19 256.59,519.23 C255.86,519.73 255.93,519.97 256.81,519.98 C257.53,519.99 257.82,520.49 257.45,521.09 ZM 557.00 499.01 C557.00,499.51 557.04,499.86 557.18,500.09 C555.69,500.19 553.75,500.28 551.27,500.35 C536.86,500.13 489.97,499.94 434.91,499.91 C369.10,499.87 315.74,499.61 315.74,499.34 C315.74,499.34 315.75,499.34 315.75,499.33 C316.44,499.06 317.00,498.21 317.00,497.45 C317.00,496.64 316.39,496.30 315.53,496.63 C314.71,496.94 313.31,496.45 312.40,495.54 C311.49,494.63 310.14,494.12 309.40,494.40 C308.06,494.92 305.00,492.58 305.00,491.04 C305.00,490.29 308.70,489.44 315.00,488.74 C318.54,488.35 320.56,486.97 319.00,486.00 C318.06,485.42 318.07,484.73 319.03,482.88 C319.71,481.57 320.37,480.37 320.50,480.22 C320.62,480.07 321.84,480.37 323.19,480.88 C326.07,481.98 327.99,481.08 328.49,478.40 C328.69,477.35 328.88,476.39 328.92,476.25 C328.97,476.11 329.09,475.66 329.19,475.25 C329.54,473.91 331.48,472.20 332.18,472.62 C333.28,473.28 338.02,470.77 337.89,469.59 C337.56,466.70 338.13,465.00 339.45,465.00 C340.25,465.00 342.01,464.50 343.37,463.88 C345.37,462.96 345.80,462.09 345.67,459.16 C345.51,455.62 345.57,455.56 349.75,455.21 C352.33,454.99 354.00,455.27 354.00,455.93 C354.00,457.43 358.53,457.27 359.81,455.72 C360.40,455.02 360.74,453.23 360.58,451.75 C360.41,450.27 360.62,449.26 361.03,449.52 C361.97,450.10 368.28,447.94 367.60,447.27 C367.32,446.99 367.75,446.10 368.56,445.30 C369.36,444.50 369.79,443.47 369.51,443.02 C369.23,442.56 370.35,441.72 372.00,441.15 C373.65,440.57 375.00,440.41 375.00,440.77 C375.00,441.14 375.70,440.44 376.56,439.22 C377.41,438.00 377.86,436.58 377.55,436.08 C376.28,434.03 380.14,432.01 384.93,432.21 C389.96,432.43 392.93,430.70 393.43,427.24 C393.81,424.67 399.00,424.50 399.00,427.06 C399.00,428.13 399.45,429.00 400.00,429.00 C400.55,429.00 401.00,429.70 401.00,430.56 C401.00,431.42 401.45,431.84 402.00,431.50 C402.55,431.16 403.00,431.40 403.00,432.03 C403.00,432.83 404.75,433.01 408.75,432.62 C411.91,432.32 415.62,432.11 417.00,432.16 C418.38,432.22 420.85,432.32 422.50,432.38 C424.69,432.47 425.41,432.09 425.16,431.00 C423.96,425.80 424.04,423.06 425.47,419.67 C426.71,416.74 427.40,416.09 428.38,416.90 C430.17,418.38 433.19,416.03 433.50,412.92 C433.63,411.59 433.80,410.11 433.87,409.64 C433.94,409.17 434.67,409.04 435.49,409.36 C436.31,409.67 437.55,409.26 438.24,408.43 C438.93,407.61 440.09,406.27 440.82,405.47 C441.67,404.52 441.75,404.00 441.04,404.00 C440.31,404.00 440.24,403.40 440.83,402.25 C441.32,401.29 441.53,399.94 441.28,399.25 C440.73,397.73 443.19,397.59 444.66,399.06 C445.42,399.82 446.23,399.63 447.43,398.43 C448.63,397.23 448.82,396.42 448.06,395.66 C447.48,395.08 447.00,393.73 447.00,392.67 C447.00,391.49 446.74,391.06 445.56,391.12 C445.90,391.07 446.26,391.01 446.62,390.96 C448.92,390.62 451.33,390.23 453.74,389.81 C453.63,389.85 453.57,389.89 453.55,389.92 C453.05,390.73 462.82,390.52 463.64,389.70 C464.00,389.33 465.37,390.19 466.69,391.61 C468.75,393.83 469.30,394.00 470.73,392.84 C471.84,391.94 472.14,391.90 471.65,392.73 C471.10,393.63 471.97,393.86 474.99,393.61 C479.80,393.20 480.15,392.93 480.66,389.28 C482.08,379.17 481.92,376.03 479.94,374.97 C478.86,374.39 477.42,373.99 476.74,374.08 C473.95,374.44 473.13,373.90 473.51,371.95 C474.05,369.16 470.49,365.71 467.91,366.53 C466.15,367.09 465.95,366.74 466.17,363.52 C466.37,360.54 466.75,359.96 468.25,360.35 C470.48,360.94 474.60,356.99 472.87,355.92 C472.25,355.54 472.06,354.72 472.44,354.10 C472.82,353.48 473.54,353.22 474.04,353.52 C474.54,353.83 476.30,353.38 477.97,352.52 C480.34,351.29 481.00,350.28 481.00,347.90 C481.00,345.14 481.27,344.88 483.87,345.15 C488.03,345.59 489.97,343.59 489.32,339.57 C488.71,335.85 490.27,334.15 492.54,336.04 C494.77,337.89 497.00,335.45 497.02,331.13 C497.03,328.70 497.32,327.95 497.89,328.86 C498.62,330.01 499.21,330.01 501.63,328.86 C503.78,327.83 504.58,326.67 504.81,324.24 C504.99,322.46 505.55,320.94 506.06,320.88 C506.58,320.81 507.45,320.64 508.00,320.50 C508.55,320.36 509.47,320.19 510.05,320.12 C510.63,320.06 511.76,318.42 512.56,316.50 C513.50,314.27 514.75,312.95 516.01,312.88 C520.09,312.62 520.50,312.47 520.62,311.25 C520.69,310.56 520.86,309.66 520.99,309.25 C521.37,308.06 521.68,306.60 521.85,305.24 C521.97,304.23 522.40,304.23 524.00,305.23 C527.10,307.17 529.35,305.17 529.43,300.43 C529.49,296.83 529.74,296.49 532.30,296.40 C536.09,296.26 537.72,294.57 536.02,292.52 C534.95,291.23 535.01,290.65 536.40,289.11 C537.33,288.09 538.01,286.86 537.92,286.38 C537.38,283.43 538.19,282.00 540.38,282.00 C543.52,282.00 545.37,279.63 544.61,276.58 C543.48,272.06 541.35,270.89 535.66,271.63 C532.82,271.99 530.27,272.65 529.98,273.08 C529.69,273.52 529.53,275.48 529.63,277.44 C529.79,280.91 528.78,282.07 527.46,279.93 C527.09,279.34 526.17,279.11 525.40,279.40 C524.63,279.70 524.00,279.59 524.00,279.17 C524.00,277.89 517.16,279.11 515.91,280.61 C515.28,281.37 513.94,282.00 512.94,282.00 C511.78,282.00 510.68,283.24 509.89,285.44 C508.79,288.47 508.40,288.75 506.62,287.80 C504.21,286.51 490.95,285.80 489.22,286.86 C488.55,287.28 487.91,288.94 487.80,290.56 C487.68,292.18 487.12,293.83 486.54,294.23 C485.88,294.70 485.97,294.97 486.81,294.98 C487.53,294.99 487.88,295.39 487.58,295.87 C487.29,296.34 485.86,296.51 484.42,296.23 C482.82,295.92 481.46,296.25 480.95,297.07 C480.27,298.18 479.80,298.15 478.31,296.86 C475.96,294.84 467.41,294.45 465.58,296.28 C464.83,297.03 464.42,298.74 464.67,300.07 C465.09,302.26 464.76,302.53 461.32,302.81 C449.85,303.76 449.46,303.67 449.95,300.15 C450.06,299.30 449.64,299.08 448.82,299.55 C447.83,300.11 447.78,299.99 448.61,299.08 C449.23,298.42 451.07,297.84 452.71,297.79 C456.31,297.69 458.76,294.62 456.97,292.47 C455.32,290.48 456.58,289.13 459.75,289.49 C463.35,289.90 465.88,287.17 465.61,283.20 C465.49,281.51 465.71,280.32 466.09,280.56 C466.48,280.79 467.05,280.32 467.36,279.49 C467.68,278.67 468.62,278.00 469.45,278.00 C470.28,278.00 471.69,276.88 472.59,275.50 C473.49,274.12 474.69,273.00 475.25,273.00 C475.81,273.00 477.33,271.76 478.63,270.25 C480.75,267.79 481.37,265.37 481.35,259.75 C481.34,258.79 481.71,257.94 482.17,257.88 C485.16,257.42 488.99,255.94 489.13,255.18 C490.85,245.95 489.77,245.49 477.67,258.92 C484.75,250.88 490.41,244.45 492.50,242.05 C494.65,239.58 497.26,236.62 500.04,233.51 C494.48,239.87 490.34,244.86 490.18,245.57 C489.75,247.47 493.17,250.98 493.76,249.23 C493.98,248.55 494.58,248.24 495.09,248.55 C495.59,248.86 496.00,248.61 496.00,248.00 C496.00,247.39 496.49,247.19 497.10,247.56 C497.87,248.04 497.86,247.61 497.06,246.12 C496.26,244.61 496.24,244.00 497.02,244.00 C497.63,244.00 497.83,243.54 497.48,242.97 C497.14,242.41 498.21,241.47 499.87,240.89 C501.97,240.16 503.23,238.83 503.99,236.53 C504.97,233.56 505.43,233.25 508.54,233.46 C512.45,233.72 513.82,232.56 513.53,229.20 C513.41,227.84 514.08,226.49 515.16,225.91 C516.17,225.37 517.00,225.23 517.00,225.59 C517.00,225.95 517.61,225.74 518.36,225.11 C519.11,224.49 519.65,222.97 519.55,221.74 C519.45,220.51 519.84,218.60 520.40,217.50 C520.96,216.40 521.36,215.26 521.28,214.96 C521.21,214.67 521.98,214.43 523.00,214.43 C524.02,214.43 524.68,214.71 524.47,215.04 C524.16,215.56 525.58,215.57 529.10,215.08 C529.44,215.04 529.67,211.62 529.63,207.50 C529.57,201.09 529.28,199.91 527.69,199.40 C525.26,198.63 519.00,199.81 519.00,201.05 C519.00,201.57 517.20,202.00 515.00,202.00 C512.80,202.00 511.00,202.45 511.00,203.00 C511.00,203.58 507.85,204.00 503.56,204.00 C499.47,204.00 495.84,203.55 495.50,203.00 C495.14,202.41 489.42,202.01 481.69,202.02 C472.80,202.03 468.99,202.35 470.00,203.00 C471.00,203.64 464.52,203.97 450.75,203.98 C437.57,203.99 430.00,203.64 430.00,203.00 C430.00,202.41 427.03,202.07 422.75,202.16 L 415.50 202.33 L 421.00 203.00 C425.82,203.59 425.29,203.69 416.69,203.84 C410.37,203.94 407.10,203.64 407.50,203.00 C407.87,202.40 406.51,202.00 404.06,202.00 C401.83,202.00 400.00,202.45 400.00,203.00 C400.00,203.55 398.65,204.00 397.00,204.00 C395.35,204.00 394.00,203.55 394.00,203.00 C394.00,202.41 390.41,202.00 385.22,202.00 C377.68,202.00 376.20,201.72 374.73,200.00 C373.08,198.07 369.08,197.21 368.92,198.75 C368.88,199.16 368.63,200.40 368.36,201.50 C368.10,202.60 367.83,203.97 367.77,204.55 C367.72,205.13 366.29,205.71 364.60,205.83 C360.37,206.16 359.96,206.81 359.38,214.10 C358.77,221.90 358.39,223.17 356.76,222.84 C356.07,222.70 354.32,222.90 352.89,223.28 C350.16,224.00 350.14,224.13 351.34,233.50 C351.48,234.60 351.20,236.74 350.70,238.25 C349.99,240.43 349.19,241.00 346.85,241.00 C344.48,241.00 343.69,241.58 342.87,243.94 C342.02,246.38 341.21,246.94 338.17,247.19 C335.13,247.45 334.56,247.84 334.83,249.50 C335.01,250.60 335.24,253.98 335.33,257.00 C335.47,261.68 335.24,262.48 333.75,262.36 C332.79,262.28 332.00,262.62 332.00,263.11 C332.00,263.60 331.66,263.95 331.25,263.88 C329.44,263.60 328.32,264.09 328.17,265.25 C328.07,265.94 327.77,268.75 327.48,271.50 C326.79,278.20 326.44,278.93 324.22,278.35 C321.51,277.64 318.58,282.48 318.86,287.23 C319.16,292.29 317.45,295.32 314.61,294.78 C312.42,294.36 310.00,296.00 310.00,297.90 C310.00,298.44 310.90,300.41 312.00,302.28 C313.85,305.41 313.87,305.67 312.25,305.70 C311.29,305.72 309.70,305.04 308.72,304.18 C306.12,301.92 304.15,304.30 303.46,310.53 C302.63,317.97 302.31,318.58 299.27,318.45 C291.08,318.09 293.36,327.34 301.87,329.02 C303.32,329.30 306.30,329.41 308.50,329.25 C310.70,329.10 314.84,328.87 317.69,328.74 C323.78,328.46 327.00,325.82 327.00,321.10 L 327.00 318.12 L 315.87 322.09 C310.12,324.14 305.19,325.68 304.43,325.68 C305.51,325.59 316.70,321.81 330.05,317.02 C331.93,316.35 333.77,315.69 335.54,315.07 C333.79,315.72 332.08,316.36 330.50,316.98 C326.02,318.71 329.40,320.13 335.65,319.14 C340.90,318.31 341.69,318.67 343.97,322.94 C345.47,325.75 343.81,327.33 340.25,326.49 C338.98,326.19 338.00,326.43 338.00,327.04 C338.00,327.63 337.58,327.86 337.06,327.54 C335.77,326.74 334.13,335.10 335.16,337.18 C335.62,338.11 336.00,339.74 336.00,340.80 C336.00,342.46 335.44,342.67 332.09,342.29 C328.69,341.89 328.08,342.14 327.40,344.17 C326.96,345.45 326.74,346.95 326.90,347.50 C327.07,348.05 327.39,350.30 327.63,352.50 C327.87,354.70 328.29,357.13 328.56,357.89 C328.83,358.66 329.33,359.01 329.67,358.67 C329.99,358.34 331.17,356.32 332.87,353.26 C331.28,356.25 329.87,358.92 328.78,361.00 C327.15,364.09 324.93,368.29 322.52,372.82 C327.54,363.20 329.05,359.72 328.61,359.27 C327.53,358.20 320.94,358.36 320.01,359.49 C318.85,360.88 318.02,368.00 319.01,368.00 C319.42,368.00 319.75,369.11 319.75,370.47 C319.75,372.89 317.09,374.69 314.30,374.16 C313.00,373.92 310.49,377.83 311.38,378.72 C311.68,379.02 311.45,380.16 310.87,381.25 C310.28,382.35 310.23,382.98 310.75,382.65 C311.28,382.33 312.21,383.17 312.83,384.52 C313.77,386.60 313.61,387.28 311.78,388.99 C310.60,390.09 308.70,391.01 307.56,391.03 C304.75,391.08 301.63,393.59 302.28,395.29 C303.03,397.24 302.01,398.41 298.25,399.93 C296.46,400.65 294.94,401.98 294.87,402.87 C294.51,407.13 295.21,413.73 296.22,415.75 C297.10,417.52 298.01,417.93 300.42,417.62 C304.36,417.13 307.00,416.03 307.00,414.89 C307.00,414.40 307.70,414.00 308.57,414.00 C309.69,414.00 310.04,413.21 309.82,411.25 C309.54,408.81 309.14,408.53 306.31,408.81 L 304.38 408.99 C305.31,408.85 315.87,405.50 329.94,400.91 C318.97,404.69 313.71,406.82 314.41,407.21 C315.21,407.66 318.71,408.15 322.18,408.30 C326.84,408.51 329.08,408.15 330.72,406.92 C331.93,406.01 332.65,404.98 332.30,404.63 C331.95,404.28 332.64,404.00 333.83,404.00 C335.02,404.00 336.00,403.55 336.00,403.00 C336.00,402.45 336.70,402.00 337.56,402.00 C338.42,402.00 338.87,401.59 338.56,401.09 C338.25,400.59 338.87,400.41 339.93,400.69 C340.99,400.97 342.10,401.83 342.40,402.60 C343.21,404.71 342.02,406.95 340.41,406.33 C338.64,405.65 334.19,408.45 334.26,410.21 C334.38,413.08 333.97,415.30 333.41,414.75 C333.09,414.43 331.49,414.63 329.86,415.20 L 326.89 416.23 L 327.40 423.41 C327.88,430.24 327.80,430.59 325.72,430.75 C324.51,430.84 323.37,431.38 323.18,431.96 C322.99,432.54 322.35,432.72 321.76,432.35 C321.17,431.99 320.97,432.15 321.31,432.70 C322.20,434.13 317.98,437.80 315.00,438.21 C311.04,438.75 310.28,439.68 310.50,443.72 C310.74,448.18 310.29,449.31 308.68,448.28 C305.65,446.36 302.53,448.25 304.05,451.08 C305.12,453.09 304.29,458.30 303.03,457.52 C302.61,457.26 302.42,458.33 302.60,459.89 C302.90,462.50 302.69,462.70 300.01,462.39 C296.76,462.01 293.57,464.43 294.42,466.64 C295.27,468.88 292.91,473.17 291.48,471.98 C289.00,469.92 287.19,474.20 286.88,482.83 C286.82,484.66 286.26,486.30 285.63,486.49 C285.01,486.68 283.30,487.10 281.83,487.42 C279.45,487.94 279.19,488.40 279.48,491.57 C279.67,493.54 279.58,494.91 279.29,494.62 C279.00,494.33 278.13,494.73 277.35,495.51 C275.90,496.95 273.07,496.48 271.77,494.57 C271.30,493.89 271.02,494.05 271.00,495.00 C270.97,496.26 270.83,496.27 270.09,495.10 C268.86,493.17 266.17,494.43 265.01,497.47 C264.09,499.88 263.68,500.00 256.08,500.00 C248.95,500.00 247.95,499.76 246.54,497.75 C245.67,496.51 244.75,495.61 244.48,495.75 C242.23,496.92 241.13,495.68 241.36,492.25 C241.68,487.38 240.05,485.65 236.43,487.03 C234.94,487.59 233.55,487.89 233.35,487.68 C233.14,487.48 232.71,484.65 232.38,481.40 C232.05,478.16 231.45,475.27 231.04,475.00 C230.63,474.73 230.04,473.83 229.73,473.00 C229.41,472.17 229.12,472.96 229.08,474.75 C229.01,477.64 228.19,478.49 225.80,478.13 C224.98,464.09 224.99,434.49 225.00,368.29 C225.00,360.24 225.00,351.66 225.00,342.49 C225.00,300.15 225.00,270.45 225.07,249.52 C225.01,269.48 225.01,297.42 225.02,336.71 C225.02,415.68 225.40,471.92 225.91,471.10 C226.62,469.98 226.89,470.08 227.28,471.60 C227.55,472.65 227.82,471.79 227.88,469.69 C227.96,467.10 228.37,466.11 229.15,466.59 C230.00,467.12 230.11,464.87 229.61,457.94 C229.23,452.80 229.23,448.90 229.61,449.28 C230.63,450.29 232.93,446.86 232.97,444.27 C232.99,442.98 231.95,441.36 230.50,440.41 C228.27,438.95 228.00,438.08 228.00,432.50 C228.00,426.92 228.27,426.05 230.50,424.59 C233.09,422.90 234.04,417.76 232.00,416.50 C231.43,416.15 231.26,414.23 231.61,412.04 C232.14,408.73 231.93,408.11 230.11,407.54 C226.93,406.53 227.20,401.32 230.50,399.82 C232.81,398.76 233.00,398.16 233.00,391.84 C233.00,387.95 232.57,385.00 232.00,385.00 C231.45,385.00 230.95,383.09 230.88,380.75 C230.77,376.76 230.72,376.68 230.00,379.50 C229.27,382.38 229.23,382.40 229.12,379.92 C229.05,378.50 229.30,377.04 229.66,376.67 C230.02,376.31 230.22,372.97 230.11,369.26 C229.96,364.48 230.34,361.91 231.42,360.50 C233.16,358.21 233.66,345.00 232.00,345.00 C231.45,345.00 230.95,343.31 230.88,341.25 C230.77,337.58 230.75,337.57 230.08,340.50 C229.52,342.97 229.27,342.31 228.67,336.71 C227.93,329.88 228.34,327.48 230.07,328.54 C230.59,328.86 230.99,327.22 230.98,324.81 C230.98,322.12 230.66,320.99 230.14,321.81 C229.16,323.35 227.99,311.40 228.02,300.10 C228.03,294.82 228.33,292.96 229.00,294.00 C229.73,295.12 229.97,294.62 229.97,292.00 C229.97,289.63 229.69,288.94 229.10,289.87 C228.60,290.67 228.18,278.08 228.12,259.87 C228.04,238.98 228.33,229.00 228.99,230.00 C229.89,231.38 230.38,225.76 230.41,213.50 C230.42,210.42 232.24,207.57 233.43,208.77 C233.80,209.14 233.84,207.95 233.52,206.14 C233.20,204.32 232.76,200.67 232.54,198.02 C232.15,193.46 232.28,193.18 234.82,192.68 C236.29,192.40 238.97,191.87 240.76,191.52 C243.03,191.07 244.48,191.34 245.54,192.40 C246.37,193.23 247.72,193.66 248.53,193.35 C249.95,192.81 250.10,192.51 250.38,189.75 C250.53,188.16 265.53,187.43 266.48,188.97 C266.83,189.53 268.24,190.00 269.62,190.00 C271.22,190.00 271.87,189.59 271.42,188.87 C270.73,187.75 271.56,187.82 281.75,189.69 L 285.50 190.38 L 282.50 191.07 C279.84,191.68 280.01,191.78 284.00,191.87 C287.24,191.94 288.08,191.70 287.00,191.00 C285.84,190.25 286.18,190.01 288.50,189.95 C291.07,189.87 291.21,189.74 289.50,189.02 C288.40,188.56 326.96,188.15 375.20,188.10 C431.97,188.05 463.11,188.37 463.51,189.01 C464.30,190.29 468.00,190.30 468.00,189.02 C468.00,187.70 529.71,187.73 530.53,189.04 C531.31,190.31 535.00,190.28 535.00,189.00 C535.00,188.41 538.41,188.01 543.25,188.02 C548.95,188.03 551.04,188.33 550.00,189.00 C548.83,189.76 549.08,189.97 551.18,189.98 C552.65,189.99 554.45,190.56 555.18,191.25 C555.91,191.94 558.75,192.50 561.50,192.50 L 566.50 192.50 L 566.60 196.04 C566.66,197.99 567.22,200.55 567.85,201.73 C568.48,202.91 568.99,204.69 568.98,205.68 C568.97,207.22 568.82,207.27 568.00,206.00 C567.16,204.70 567.03,204.73 567.02,206.17 C567.01,207.22 568.12,208.09 570.00,208.50 L 573.00 209.16 L 573.00 229.17 C573.00,248.35 572.92,249.21 571.00,249.71 C568.62,250.33 568.38,252.83 570.55,254.41 C571.75,255.29 572.24,258.44 572.71,268.33 C573.30,280.81 573.26,281.12 571.15,281.67 C569.26,282.16 569.00,282.94 569.00,288.00 C569.00,292.93 569.29,293.84 571.00,294.29 C572.90,294.79 573.00,295.65 573.00,312.00 C573.00,328.35 572.90,329.21 571.00,329.71 C569.29,330.16 569.00,331.07 569.00,336.12 C569.00,340.90 569.31,342.00 570.64,342.00 C573.55,342.00 574.94,345.22 574.94,352.00 C574.94,358.78 573.55,362.00 570.64,362.00 C568.19,362.00 568.61,365.67 571.14,366.33 C573.20,366.86 573.26,367.25 572.59,375.69 C572.13,381.54 571.41,384.87 570.45,385.61 C569.31,386.48 569.00,389.60 569.00,400.24 C569.00,412.93 569.12,413.80 571.00,414.29 C572.68,414.73 573.00,415.65 573.00,420.00 C573.00,424.35 572.68,425.27 571.00,425.71 C569.29,426.16 569.00,427.07 569.00,432.00 C569.00,436.93 569.29,437.84 571.00,438.29 C572.91,438.79 573.00,439.65 573.00,458.44 C573.00,474.96 572.76,478.15 571.50,478.64 C569.78,479.30 569.48,482.56 571.05,483.53 C571.77,483.97 571.73,484.62 570.94,485.58 C570.30,486.35 569.41,486.75 568.96,486.47 C568.51,486.19 567.78,486.54 567.35,487.23 C566.58,488.46 566.37,489.14 565.66,492.70 C565.47,493.66 563.52,494.99 561.16,495.78 C558.28,496.74 557.00,497.74 557.00,499.01 ZM 420.50 595.75 C420.50,588.71 420.65,582.51 420.88,579.01 C420.94,579.39 421.01,579.81 421.09,580.25 C421.54,582.59 421.93,584.86 421.96,585.31 C421.98,585.75 422.34,585.91 422.75,585.66 C423.16,585.41 424.16,585.92 424.97,586.80 C426.26,588.20 426.25,588.31 424.83,587.77 C423.62,587.30 423.35,587.62 423.73,589.06 C424.00,590.12 424.73,590.69 425.36,590.34 C426.03,589.97 425.98,590.26 425.25,591.05 C423.42,593.02 423.71,593.75 426.25,593.56 C428.94,593.37 433.00,594.96 433.00,596.21 C433.00,596.70 434.43,597.70 436.18,598.43 C438.96,599.60 439.37,600.27 439.43,603.64 L 439.50 607.50 L 444.50 607.16 C448.57,606.88 449.27,607.06 448.25,608.11 C445.06,611.40 447.97,616.47 453.50,617.27 C455.15,617.51 456.98,617.77 457.56,617.85 C458.14,617.93 459.41,617.42 460.37,616.72 C461.82,615.66 460.37,613.77 446.15,599.70 L 462.68 616.00 L 481.97 616.00 C481.97,616.75 481.97,617.18 481.97,617.25 C482.04,619.06 487.72,616.22 488.21,614.13 C488.81,611.62 487.60,606.47 486.49,606.75 C485.86,606.91 485.45,597.41 485.37,580.45 C485.30,565.86 485.48,554.15 485.77,554.44 C486.80,555.47 489.67,551.03 489.42,548.79 C489.28,547.53 489.13,545.65 489.08,544.62 C489.01,542.99 488.46,542.83 484.93,543.39 C482.70,543.75 479.90,544.95 478.72,546.05 C477.54,547.15 475.96,547.81 475.20,547.52 C474.45,547.24 472.14,547.00 470.07,547.00 C467.50,547.00 465.39,546.21 463.41,544.50 C460.33,541.86 456.08,541.15 455.89,543.25 C455.83,543.94 455.86,545.51 455.96,546.75 C456.06,547.99 455.70,549.00 455.17,549.00 C453.56,549.00 455.10,552.98 457.12,554.07 C458.16,554.62 459.00,555.53 459.00,556.09 C459.00,556.66 458.60,556.87 458.10,556.56 C456.79,555.75 456.00,558.52 456.02,563.83 C456.03,567.10 456.31,568.06 456.96,567.03 C457.78,565.73 457.95,565.73 458.36,567.03 C458.61,567.84 459.31,570.03 459.91,571.90 C461.44,576.67 461.27,580.53 459.46,582.04 C457.52,583.64 456.09,582.35 455.79,578.71 C455.66,577.22 455.19,576.00 454.72,576.00 C454.26,576.00 454.22,575.44 454.63,574.75 C455.13,573.92 454.81,573.96 453.67,574.89 C452.20,576.09 451.69,576.03 449.98,574.48 C448.89,573.50 448.00,571.91 448.00,570.95 C448.00,569.11 445.72,567.66 442.64,567.56 C441.41,567.52 440.38,566.29 439.63,564.00 C438.74,561.27 437.94,560.49 436.00,560.44 C434.62,560.40 433.61,559.84 433.75,559.19 C433.89,558.53 433.52,558.00 432.94,558.00 C432.36,558.00 432.18,557.52 432.54,556.94 C433.50,555.39 430.05,552.00 427.51,552.00 C424.58,552.00 423.87,551.10 425.06,548.89 C425.81,547.48 425.57,546.57 424.02,545.02 C421.46,542.46 419.94,542.47 417.12,545.10 C415.88,546.26 414.61,546.95 414.30,546.64 C413.99,546.32 412.90,546.52 411.87,547.07 C410.50,547.81 410.00,547.73 409.98,546.79 C409.98,546.08 409.63,544.96 409.21,544.30 C408.21,542.73 402.00,541.63 402.00,543.03 C402.00,543.61 401.05,545.37 399.88,546.95 C398.72,548.52 398.07,550.30 398.44,550.90 C398.87,551.60 403.36,552.00 410.62,552.00 L 401.00 552.00 L 401.00 616.07 L 410.75 615.79 L 420.50 615.50 ZM 199.94 615.72 C202.22,617.49 203.05,616.89 203.15,612.56 C203.28,614.06 203.47,615.13 203.68,615.35 C204.05,615.72 221.49,615.91 242.43,615.76 L 280.50 615.50 L 281.00 602.25 L 281.00 608.30 C281.00,616.42 281.04,616.56 283.43,616.46 C284.77,616.40 286.58,615.76 287.46,615.04 C288.89,613.85 288.89,613.48 287.52,611.39 C286.69,610.12 285.97,608.27 285.93,607.29 C285.87,605.72 285.75,605.74 285.00,607.50 C284.33,609.05 284.12,608.54 284.07,605.25 C284.03,602.91 283.52,601.00 282.94,601.00 C282.36,601.00 282.13,600.60 282.43,600.11 C282.73,599.63 282.24,598.61 281.34,597.86 C280.06,596.81 276.24,596.58 264.40,596.84 C255.99,597.03 248.64,596.90 248.07,596.54 C246.29,595.44 249.14,593.33 252.16,593.51 C256.69,593.78 257.48,592.78 257.92,586.25 C257.96,585.56 258.88,585.00 259.95,585.00 C261.87,585.00 267.00,579.34 267.00,577.21 C267.00,576.59 267.97,576.34 269.25,576.64 C270.49,576.93 272.17,577.11 273.00,577.04 C273.83,576.98 275.51,576.89 276.75,576.86 C279.02,576.79 279.15,576.60 279.38,573.05 C279.44,571.98 280.06,570.54 280.75,569.85 C281.57,569.03 282.00,565.46 282.00,559.55 C281.99,548.60 279.97,543.96 275.42,544.46 C273.93,544.62 272.35,545.42 271.89,546.23 C271.20,547.47 266.37,547.72 241.28,547.83 C212.23,547.95 207.45,547.69 208.46,546.06 C208.73,545.62 208.06,544.46 206.98,543.48 C205.89,542.49 205.00,542.20 205.00,542.81 C205.00,543.43 204.42,543.71 203.70,543.44 C202.99,543.17 201.42,544.08 200.21,545.47 C198.85,547.03 198.49,548.03 199.26,548.08 C200.06,548.13 200.11,548.32 199.40,548.61 C198.79,548.86 198.50,550.18 198.76,551.53 C199.19,553.77 200.12,554.46 202.25,554.12 C202.66,554.05 202.96,555.01 202.92,556.25 C202.88,557.49 202.60,557.91 202.31,557.18 C201.49,555.13 198.88,559.47 198.78,563.05 C198.61,568.91 200.92,569.77 217.10,569.95 C225.02,570.03 231.82,570.42 232.21,570.81 C233.53,572.13 231.36,574.05 228.27,574.28 C226.58,574.40 225.38,574.81 225.61,575.18 C225.84,575.55 225.20,576.12 224.18,576.44 C223.02,576.81 222.40,577.86 222.52,579.26 C222.80,582.74 221.99,584.24 220.50,583.00 C219.60,582.25 218.49,582.27 216.76,583.06 C214.71,584.00 214.36,584.76 214.67,587.59 C214.89,589.60 214.60,591.00 213.96,591.00 C213.36,591.00 213.22,591.56 213.63,592.25 C214.20,593.20 214.04,593.24 212.94,592.39 C212.15,591.78 209.14,591.34 206.25,591.40 C203.36,591.46 201.00,591.09 201.00,590.59 C201.00,590.08 200.74,589.93 200.41,590.25 C199.76,590.91 198.91,599.43 198.59,608.50 C198.44,612.93 198.79,614.82 199.94,615.72 ZM 583.50 617.00 C584.28,618.25 587.13,618.28 590.33,617.07 C592.58,616.21 592.75,615.70 592.42,610.82 C591.86,602.66 591.35,601.55 587.28,599.49 C584.09,597.88 581.13,597.57 568.25,597.48 C559.86,597.43 553.00,597.75 553.00,598.19 C553.00,598.64 549.44,599.00 545.08,599.00 C536.74,599.00 534.96,598.00 537.68,594.86 C538.94,593.42 538.79,592.98 536.49,591.17 C534.33,589.47 533.79,588.08 533.42,583.30 C533.10,579.19 533.24,578.08 533.91,579.50 C534.82,581.42 534.86,581.41 534.93,579.25 C534.97,577.99 535.63,577.00 536.44,577.00 C539.32,577.00 539.07,574.92 536.08,573.88 C534.32,573.26 533.00,572.10 533.00,571.15 C533.00,569.65 535.38,569.53 559.16,569.80 C577.61,570.01 585.53,569.77 586.01,568.98 C586.39,568.37 587.53,567.75 588.55,567.60 C589.56,567.45 590.86,566.58 591.44,565.67 C592.26,564.36 591.92,563.48 589.85,561.56 C588.40,560.22 586.94,559.39 586.61,559.73 C586.27,560.06 586.00,558.76 586.00,556.83 C586.00,554.76 586.51,553.29 587.25,553.23 C593.38,552.72 593.20,552.87 593.44,547.75 C593.56,545.20 592.86,544.51 590.59,544.93 C590.09,545.03 589.39,544.63 589.03,544.05 C588.62,543.38 587.62,543.70 586.30,544.94 C585.15,546.01 583.95,546.62 583.63,546.30 C583.31,545.98 582.47,546.19 581.77,546.77 C580.96,547.44 571.13,547.87 554.80,547.95 C529.98,548.07 529.11,548.01 529.47,546.16 C529.71,544.90 529.03,543.88 527.47,543.17 C525.47,542.26 525.01,542.39 524.49,544.05 C524.14,545.12 523.11,546.01 522.18,546.02 C520.92,546.03 520.82,546.23 521.80,546.85 C522.83,547.51 522.78,547.93 521.55,548.96 C518.70,551.33 518.88,552.12 531.01,552.27 C520.96,552.67 516.88,553.66 513.74,556.03 C515.74,554.13 515.45,554.00 513.56,554.00 C512.22,554.00 510.82,553.52 510.46,552.93 C510.09,552.34 509.17,552.11 508.40,552.40 C507.63,552.70 506.99,552.39 506.97,551.72 C506.95,551.05 506.11,551.49 505.10,552.70 C503.38,554.76 503.10,559.85 504.49,563.75 C505.03,565.27 506.21,565.32 507.00,564.11 L 507.00 582.85 C507.00,601.88 507.09,602.84 509.29,606.10 C511.70,609.69 518.21,613.81 523.40,615.05 C525.10,615.46 539.66,615.84 555.75,615.90 L 583.98 616.00 C583.97,616.00 583.95,616.00 583.94,616.00 C583.36,616.00 583.16,616.45 583.50,617.00 ZM 350.00 605.25 C350.00,614.14 350.26,616.00 351.50,616.00 C352.71,616.00 353.00,614.40 353.00,607.62 C353.00,595.56 353.61,593.20 356.58,593.77 C358.41,594.12 359.19,593.67 359.86,591.86 C360.34,590.56 360.53,588.95 360.27,588.28 C359.59,586.49 362.41,584.02 364.00,585.00 C364.72,585.45 366.32,585.36 367.55,584.80 C369.30,584.00 369.75,583.02 369.62,580.31 C369.45,576.77 370.36,575.16 371.49,576.98 C371.84,577.54 372.57,578.00 373.12,578.00 C373.67,578.00 373.79,577.47 373.39,576.83 C372.91,576.05 373.22,575.87 374.32,576.29 C375.23,576.64 375.93,576.61 375.87,576.21 C375.81,575.82 375.82,573.82 375.88,571.77 C375.99,568.23 376.12,568.10 378.49,569.00 C381.15,570.01 384.00,569.40 384.00,567.83 C384.00,567.31 384.35,567.10 384.79,567.37 C385.22,567.63 385.57,567.02 385.57,566.00 C385.57,564.98 385.29,564.32 384.96,564.53 C384.62,564.74 384.42,563.92 384.51,562.70 C384.60,561.49 385.31,560.46 386.09,560.42 C389.15,560.24 393.08,557.53 393.67,555.18 C394.06,553.63 393.66,551.75 392.58,550.11 C391.64,548.67 390.63,546.71 390.32,545.75 C390.02,544.79 389.48,543.96 389.13,543.92 C384.40,543.29 383.74,543.48 382.73,545.70 C381.72,547.91 381.16,548.06 375.07,547.79 C369.54,547.55 368.54,547.23 368.78,545.80 C368.94,544.87 368.15,543.62 367.03,543.02 C365.48,542.19 365.00,542.23 364.98,543.21 C364.97,544.22 364.80,544.23 364.19,543.27 C363.07,541.51 359.23,544.34 358.82,547.22 C358.59,548.82 357.57,549.61 355.12,550.11 C351.50,550.85 349.72,552.68 350.51,554.83 C350.78,555.56 350.32,557.13 349.50,558.30 C348.67,559.48 348.00,559.89 348.00,559.22 C348.00,557.55 344.51,557.68 343.09,559.39 C341.84,560.89 341.97,563.11 343.35,564.12 C343.82,564.47 343.62,565.82 342.90,567.12 C342.18,568.43 341.53,569.95 341.45,570.50 C341.37,571.05 341.24,571.87 341.15,572.32 C341.07,572.77 340.28,572.42 339.40,571.55 C338.52,570.67 338.06,569.30 338.36,568.50 C338.67,567.71 338.37,566.48 337.71,565.78 C337.04,565.08 336.45,563.94 336.40,563.25 C336.18,560.51 335.89,560.16 333.00,559.15 C330.85,558.40 330.00,557.45 329.98,555.80 C329.96,552.48 328.59,550.79 325.67,550.47 C322.68,550.14 320.81,549.15 321.35,548.18 C321.57,547.81 320.68,546.38 319.37,545.02 C318.07,543.66 317.00,543.05 317.00,543.68 C317.00,544.35 316.12,544.58 314.84,544.25 C313.23,543.83 312.89,544.02 313.51,545.01 C314.10,545.97 313.88,546.17 312.71,545.72 C311.58,545.29 311.27,545.53 311.66,546.55 C312.11,547.73 310.91,548.00 305.19,548.00 C300.51,548.00 298.00,547.58 297.66,546.75 C297.28,545.81 296.89,545.87 296.09,547.00 C295.51,547.83 295.01,548.05 294.98,547.50 C294.96,546.95 293.80,545.67 292.40,544.65 C289.99,542.90 289.78,542.89 287.94,544.56 C286.47,545.89 286.27,546.62 287.13,547.65 C287.96,548.65 287.94,549.00 287.07,549.00 C286.27,549.00 286.02,550.69 286.28,554.33 C286.74,560.49 287.52,562.16 289.84,561.93 C294.68,561.46 295.73,561.96 295.24,564.51 C294.55,568.15 296.74,570.30 300.54,569.69 C304.60,569.03 306.40,570.21 306.59,573.69 C306.83,578.12 306.90,578.25 308.72,577.55 C309.67,577.19 310.12,577.21 309.73,577.61 C309.34,578.00 309.53,578.93 310.15,579.68 C310.77,580.43 311.01,581.32 310.68,581.66 C310.34,581.99 310.52,583.10 311.07,584.13 C311.79,585.48 313.19,586.00 316.07,586.00 C319.75,586.00 319.98,586.16 319.01,587.98 C317.52,590.77 320.76,593.96 324.38,593.27 C326.77,592.81 327.01,593.06 327.12,596.13 C327.18,597.99 327.16,600.06 327.07,600.75 C326.99,601.44 327.38,602.00 327.96,602.00 C329.24,602.00 329.34,606.25 328.08,607.55 C326.88,608.79 326.38,615.18 327.35,616.76 C328.25,618.21 329.00,618.29 330.86,617.11 C331.80,616.51 331.88,616.04 331.11,615.57 C331.07,615.54 331.04,615.51 331.00,615.47 C332.19,615.77 336.19,616.00 340.67,616.00 L 350.00 616.00 ZM 410.39 392.39 C409.44,392.22 408.81,392.20 408.47,392.33 C408.03,390.17 407.71,388.59 407.60,388.00 C407.50,387.51 407.21,386.19 406.78,384.32 C407.71,385.89 409.07,381.12 408.41,378.16 C407.58,374.50 407.65,371.45 408.72,364.84 C409.64,359.20 409.63,359.17 405.83,354.84 C403.73,352.45 401.76,349.71 401.44,348.75 C401.12,347.79 400.43,347.00 399.89,347.00 C399.36,347.00 399.46,346.43 400.11,345.72 C400.77,345.02 402.47,344.54 403.90,344.64 C405.33,344.75 407.01,344.87 407.64,344.92 C408.27,344.96 408.72,345.74 408.64,346.64 C408.56,347.55 409.13,348.51 409.91,348.78 C410.85,349.11 411.12,348.77 410.73,347.75 C410.30,346.63 410.66,346.36 412.07,346.73 C413.84,347.19 414.44,348.24 414.11,350.27 C413.92,351.44 418.77,353.03 420.49,352.36 C422.08,351.76 422.17,351.93 422.41,356.14 C422.50,357.59 423.12,359.44 423.80,360.26 C425.14,361.87 429.86,362.29 431.53,360.95 C432.10,360.49 433.10,360.44 433.75,360.84 C435.10,361.68 434.28,366.00 432.76,366.00 C432.12,366.00 432.15,366.48 432.84,367.30 C433.43,368.02 435.83,368.72 438.18,368.86 C440.52,368.99 442.63,369.29 442.85,369.52 C443.08,369.74 444.16,369.45 445.25,368.87 C446.80,368.04 447.07,368.08 446.46,369.07 C445.90,369.97 446.16,370.15 447.32,369.71 C448.23,369.36 448.89,369.39 448.79,369.79 C448.43,371.17 450.15,375.00 451.13,375.00 C451.67,375.00 451.86,375.41 451.55,375.91 C451.24,376.42 451.55,377.08 452.24,377.40 C452.93,377.71 452.60,377.83 451.50,377.67 C450.40,377.51 449.61,376.85 449.75,376.19 C449.90,375.49 448.82,375.00 447.12,375.00 C444.86,375.00 443.97,375.65 442.99,378.03 C442.06,380.27 441.27,380.90 439.91,380.47 C438.91,380.15 436.95,380.64 435.55,381.56 C434.15,382.48 433.00,382.86 433.00,382.42 C433.00,381.97 432.52,382.08 431.92,382.68 C431.27,383.33 429.57,383.47 427.64,383.03 C425.67,382.59 424.06,382.73 423.47,383.40 C422.34,384.68 422.21,387.54 423.24,388.57 C423.63,388.96 423.63,389.78 423.25,390.39 C422.86,391.00 422.49,392.85 422.41,394.50 C422.18,399.60 422.07,399.83 419.99,399.29 C418.88,399.00 417.71,397.71 417.39,396.42 C416.81,394.09 415.45,393.31 410.39,392.39 ZM 559.25 167.25 C562.69,167.44 565.95,167.54 566.50,167.46 C567.93,167.28 567.78,162.74 566.29,161.19 C564.59,159.43 544.58,158.25 543.59,159.86 C543.16,160.55 539.86,161.01 535.19,161.02 C529.86,161.03 527.96,161.33 529.00,162.00 C530.20,162.78 530.00,163.00 528.00,163.14 C526.62,163.24 527.75,163.62 530.50,164.00 C534.72,164.58 534.09,164.69 526.50,164.74 C520.65,164.78 518.38,164.52 520.00,164.00 L 522.50 163.20 L 520.00 163.08 C518.00,162.99 517.80,162.77 519.00,162.00 C520.12,161.27 519.62,161.03 517.00,161.05 C515.08,161.06 512.63,161.72 511.56,162.53 C509.06,164.42 505.55,164.41 503.64,162.50 C502.80,161.66 500.47,161.03 498.32,161.07 C495.27,161.13 494.90,161.31 496.50,162.00 C497.92,162.61 496.77,162.88 492.50,162.91 C488.43,162.95 486.97,162.67 487.97,162.04 C488.93,161.43 484.40,161.00 474.97,160.80 C455.15,160.39 437.98,161.00 440.50,162.04 C442.14,162.71 441.91,162.87 439.19,162.93 C437.25,162.97 436.14,163.41 436.50,164.00 C436.84,164.55 436.64,165.00 436.06,165.00 C435.48,165.00 435.00,165.45 435.00,166.00 C435.00,166.65 454.78,166.98 492.00,166.97 C543.12,166.94 552.44,166.56 547.75,164.66 C547.06,164.38 549.20,164.19 552.50,164.23 C555.80,164.27 557.26,164.49 555.75,164.72 C550.85,165.46 552.84,166.90 559.25,167.25 ZM 595.72 287.72 C596.13,288.79 596.51,288.96 596.77,288.19 C596.99,287.53 597.58,287.24 598.09,287.55 C598.62,287.88 599.00,283.07 599.00,276.00 C599.00,269.21 598.61,264.12 598.11,264.43 C596.87,265.20 596.01,261.38 596.11,255.50 C596.18,251.71 596.37,251.10 596.92,253.00 C597.87,256.27 598.68,249.50 599.57,230.93 C600.14,219.00 600.02,217.16 598.54,215.68 C597.61,214.76 596.44,214.00 595.93,214.00 C594.88,214.00 594.69,285.02 595.72,287.72 ZM 506.21 615.74 C508.87,617.00 513.99,616.61 517.15,614.92 C519.35,613.74 519.35,613.74 516.43,612.25 C512.26,610.12 509.35,607.25 507.96,603.90 C506.22,599.69 503.67,600.05 504.18,604.43 C504.40,606.32 504.23,607.64 503.79,607.37 C503.36,607.10 503.00,608.03 503.00,609.44 C503.00,610.85 503.44,612.00 503.97,612.00 C504.50,612.00 504.71,612.60 504.43,613.33 C504.14,614.07 504.93,615.14 506.21,615.74 ZM 214.92 175.75 C215.26,176.85 219.72,175.50 223.37,173.18 C227.72,170.43 227.77,170.34 225.66,169.00 C222.99,167.32 219.00,166.79 219.00,168.13 C219.00,168.67 218.59,168.87 218.09,168.56 C216.13,167.35 214.50,169.11 214.67,172.26 C214.77,174.04 214.88,175.61 214.92,175.75 ZM 595.00 344.06 C595.00,348.43 595.19,352.00 595.42,352.00 C598.33,352.00 599.00,350.42 599.00,343.61 C599.00,337.14 598.80,336.41 597.00,336.27 C595.16,336.14 595.00,336.74 595.00,344.06 ZM 420.77 611.75 C420.36,616.30 420.53,617.00 422.08,617.00 C423.67,617.00 424.95,614.92 425.60,611.25 C425.72,610.56 425.39,610.00 424.85,610.00 C424.32,610.00 424.16,609.55 424.50,609.00 C424.84,608.45 424.64,608.00 424.06,608.00 C423.48,608.00 422.99,606.99 422.97,605.75 C422.91,601.65 421.29,606.10 420.77,611.75 ZM 595.62 442.29 C597.03,443.70 599.00,439.84 599.00,435.68 C599.00,431.14 596.78,428.52 595.58,431.64 C594.81,433.66 594.84,441.50 595.62,442.29 ZM 595.68 424.62 C596.10,425.71 596.52,425.93 596.77,425.19 C596.99,424.53 597.58,424.24 598.09,424.55 C598.59,424.87 599.00,422.90 599.00,420.17 C599.00,415.64 598.05,414.00 595.42,414.00 C594.73,414.00 594.95,422.70 595.68,424.62 ZM 595.00 451.17 C595.00,455.33 595.28,456.00 597.00,456.00 C598.67,456.00 599.00,455.33 599.00,451.93 C599.00,448.09 596.97,444.36 595.62,445.71 C595.28,446.05 595.00,448.51 595.00,451.17 ZM 595.68 400.62 C596.10,401.71 596.52,401.93 596.77,401.19 C596.99,400.53 597.58,400.24 598.09,400.55 C598.59,400.86 599.00,399.29 599.00,397.06 C599.00,394.83 598.81,393.00 598.58,393.00 C598.35,393.00 597.45,392.73 596.58,392.39 C595.32,391.91 595.00,392.51 595.00,395.31 C595.00,397.25 595.31,399.64 595.68,400.62 ZM 595.73 311.40 C596.13,311.80 596.62,311.64 596.81,311.06 C597.01,310.47 597.58,310.24 598.09,310.55 C598.59,310.86 598.99,309.18 598.98,306.81 C598.97,303.66 598.71,302.90 598.00,304.00 C597.20,305.24 597.03,305.16 597.00,303.50 C596.97,301.84 596.80,301.76 596.00,303.00 C594.86,304.76 594.68,310.35 595.73,311.40 ZM 303.21 502.29 C302.82,502.48 301.21,502.72 299.64,502.82 C297.42,502.96 296.92,502.65 297.39,501.42 C297.73,500.55 298.00,499.20 298.00,498.42 C298.00,496.22 302.22,497.36 303.12,499.81 C303.56,500.98 303.59,502.10 303.21,502.29 ZM 595.00 323.94 C595.00,327.26 595.31,327.85 597.00,327.73 C598.55,327.61 599.00,326.86 599.00,324.39 C599.00,322.42 598.40,320.98 597.42,320.61 C595.02,319.69 595.00,319.72 595.00,323.94 ZM 445.50 309.71 C443.60,310.87 442.10,311.30 441.92,310.75 C441.87,310.61 441.72,309.49 441.58,308.25 C441.37,306.32 441.80,306.00 444.67,306.00 C448.38,306.00 448.77,307.73 445.50,309.71 ZM 524.95 205.81 C523.36,205.31 485.92,205.07 448.68,205.09 C486.74,205.03 525.00,205.20 525.00,205.67 C525.00,205.70 524.98,205.75 524.95,205.81 ZM 310.48 395.42 C306.45,403.15 303.79,408.98 304.33,409.00 L 303.11 409.11 ZM 377.89 385.39 C378.30,385.27 378.52,385.22 378.53,385.24 C378.66,385.38 371.05,390.63 361.63,396.91 L 345.56 407.61 L 362.00 396.57 C370.27,391.02 376.76,386.44 377.89,385.39 ZM 356.12 308.22 C356.13,308.22 356.13,308.22 356.14,308.23 C356.57,308.38 352.19,317.27 346.40,328.00 C345.81,329.10 345.19,330.24 344.56,331.42 C350.74,319.59 356.42,308.38 356.12,308.22 ZM 591.81 494.27 C591.33,495.56 590.84,496.74 590.37,497.66 C588.39,501.58 585.50,505.23 582.02,508.36 C586.19,504.38 589.61,499.49 591.81,494.27 ZM 227.69 275.27 C227.95,276.24 227.93,277.59 227.66,278.27 C227.38,278.95 227.17,278.15 227.19,276.50 C227.22,274.85 227.44,274.30 227.69,275.27 ZM 203.01 605.36 L 202.93 602.50 L 226.36 585.00 L 249.79 567.50 L 226.40 585.00 L 203.01 602.50 ZM 564.19 498.31 C568.23,496.12 571.89,492.52 573.95,488.52 L 575.89 484.74 L 574.15 488.28 C572.02,492.61 568.56,496.07 564.19,498.31 ZM 216.72 505.93 C220.24,509.63 224.53,512.74 229.45,515.07 C224.75,513.12 220.37,509.90 216.72,505.93 ZM 227.26 488.92 C228.23,490.55 229.64,492.47 230.88,493.79 C230.12,492.98 229.46,492.42 228.88,491.78 C228.24,491.07 227.70,490.26 227.26,488.92 ZM 400.32 356.96 C398.10,347.49 396.86,341.73 396.38,338.24 C396.95,341.70 398.19,347.44 400.32,356.96 ZM 482.00 583.87 L 482.00 552.00 L 482.05 552.00 ZM 296.66 513.35 C298.71,511.72 301.20,509.80 303.67,507.93 L 312.84 501.00 L 303.34 508.25 C300.52,510.40 298.34,512.06 296.66,513.35 ZM 573.93 552.00 L 585.00 551.90 L 585.00 552.00 ZM 437.11 590.80 C428.73,582.64 422.14,576.49 421.27,576.03 C421.28,576.01 421.30,576.00 421.31,576.00 C421.69,576.00 428.39,582.30 437.11,590.80 ZM 338.64 264.51 C321.27,294.54 304.02,324.99 304.34,325.67 C303.88,325.21 321.20,294.65 338.64,264.51 ZM 476.55 383.59 C477.57,381.52 474.99,378.81 466.95,373.07 C474.56,378.50 477.84,381.52 476.55,383.59 ZM 299.99 489.97 C296.62,492.55 293.78,494.72 291.75,496.26 C289.16,498.23 286.74,500.02 284.72,501.46 C287.97,499.09 292.86,495.41 299.99,489.97 ZM 468.85 386.71 C470.99,386.19 472.77,385.71 474.01,385.30 C472.73,385.80 471.02,386.26 468.85,386.71 ZM 255.26 500.97 L 269.02 501.50 L 265.87 506.23 L 268.97 501.50 L 255.24 500.97 C247.61,500.68 242.80,500.25 239.27,499.22 C242.81,500.25 247.62,500.68 255.26,500.97 ZM 516.91 214.87 C518.78,212.84 520.35,211.16 521.43,210.03 C520.62,210.93 519.71,211.91 518.75,212.92 C518.15,213.55 517.53,214.20 516.91,214.87 ZM 329.73 467.18 C342.11,457.66 354.58,448.05 358.00,445.41 C351.80,450.21 341.00,458.52 329.73,467.18 ZM 508.71 561.11 C509.37,560.28 510.23,559.32 511.15,558.42 C510.97,558.61 510.79,558.81 510.61,559.01 ZM 206.66 475.81 C206.77,482.53 206.90,486.65 207.04,487.39 C207.17,488.03 207.31,488.66 207.47,489.29 C207.30,488.66 207.16,488.03 207.03,487.39 C206.89,486.65 206.76,482.68 206.66,475.81 ZM 440.92 392.29 C440.48,392.49 440.16,392.69 440.05,392.87 C439.75,393.33 433.70,401.65 426.62,411.35 C433.70,401.65 439.78,393.28 440.12,392.76 C440.21,392.62 440.49,392.46 440.92,392.29 ZM 431.60 311.04 C427.47,315.79 425.08,318.69 423.92,320.38 C425.10,318.65 427.54,315.70 431.60,311.04 ZM 413.95 416.00 C414.28,415.93 417.76,410.77 422.07,403.96 C417.73,410.81 414.24,416.00 413.96,416.00 C413.95,416.00 413.95,416.00 413.95,416.00 Z" fill="rgb(253,253,254)"/>
<path d="M 327.35 616.76 C326.38,615.18 326.88,608.79 328.08,607.55 C329.34,606.25 329.24,602.00 327.96,602.00 C327.38,602.00 326.99,601.44 327.07,600.75 C327.16,600.06 327.18,597.99 327.12,596.13 C327.01,593.06 326.77,592.81 324.38,593.27 C320.76,593.96 317.52,590.77 319.01,587.98 C319.98,586.16 319.75,586.00 316.07,586.00 C313.19,586.00 311.79,585.48 311.07,584.13 C310.52,583.10 310.34,581.99 310.68,581.66 C311.01,581.32 310.77,580.43 310.15,579.68 C309.53,578.93 309.34,578.00 309.73,577.61 C310.12,577.21 309.67,577.19 308.72,577.55 C306.90,578.25 306.83,578.12 306.59,573.69 C306.40,570.21 304.60,569.03 300.54,569.69 C296.74,570.30 294.55,568.15 295.24,564.51 C295.73,561.96 294.68,561.46 289.84,561.93 C287.52,562.16 286.74,560.49 286.28,554.33 C286.02,550.69 286.27,549.00 287.07,549.00 C287.94,549.00 287.96,548.65 287.13,547.65 C286.27,546.62 286.47,545.89 287.94,544.56 C289.78,542.89 289.99,542.90 292.40,544.65 C293.80,545.67 294.96,546.95 294.98,547.50 C295.01,548.05 295.51,547.83 296.09,547.00 C296.89,545.87 297.28,545.81 297.66,546.75 C298.00,547.58 300.51,548.00 305.19,548.00 C310.91,548.00 312.11,547.73 311.66,546.55 C311.27,545.53 311.58,545.29 312.71,545.72 C313.88,546.17 314.10,545.97 313.51,545.01 C312.89,544.02 313.23,543.83 314.84,544.25 C316.12,544.58 317.00,544.35 317.00,543.68 C317.00,543.05 318.07,543.66 319.37,545.02 C320.68,546.38 321.57,547.81 321.35,548.18 C320.81,549.15 322.68,550.14 325.67,550.47 C328.59,550.79 329.96,552.48 329.98,555.80 C330.00,557.45 330.85,558.40 333.00,559.15 C335.89,560.16 336.18,560.51 336.40,563.25 C336.45,563.94 337.04,565.08 337.71,565.78 C338.37,566.48 338.67,567.71 338.36,568.50 C338.06,569.30 338.52,570.67 339.40,571.55 C340.28,572.42 341.07,572.77 341.15,572.32 C341.24,571.87 341.37,571.05 341.45,570.50 C341.53,569.95 342.18,568.43 342.90,567.12 C343.62,565.82 343.82,564.47 343.35,564.12 C341.97,563.11 341.84,560.89 343.09,559.39 C344.51,557.68 348.00,557.55 348.00,559.22 C348.00,559.89 348.67,559.48 349.50,558.30 C350.32,557.13 350.78,555.56 350.51,554.83 C349.72,552.68 351.50,550.85 355.12,550.11 C357.57,549.61 358.59,548.82 358.82,547.22 C359.23,544.34 363.07,541.51 364.19,543.27 C364.80,544.23 364.97,544.22 364.98,543.21 C365.00,542.23 365.48,542.19 367.03,543.02 C368.15,543.62 368.94,544.87 368.78,545.80 C368.54,547.23 369.54,547.55 375.07,547.79 C381.16,548.06 381.72,547.91 382.73,545.70 C383.74,543.48 384.40,543.29 389.13,543.92 C389.48,543.96 390.02,544.79 390.32,545.75 C390.63,546.71 391.64,548.67 392.58,550.11 C393.66,551.75 394.06,553.63 393.67,555.18 C393.08,557.53 389.15,560.24 386.09,560.42 C385.31,560.46 384.60,561.49 384.51,562.70 C384.42,563.92 384.62,564.74 384.96,564.53 C385.29,564.32 385.57,564.98 385.57,566.00 C385.57,567.02 385.22,567.63 384.79,567.37 C384.35,567.10 384.00,567.31 384.00,567.83 C384.00,569.40 381.15,570.01 378.49,569.00 C376.12,568.10 375.99,568.23 375.88,571.77 C375.82,573.82 375.81,575.82 375.87,576.21 C375.93,576.61 375.23,576.64 374.32,576.29 C373.22,575.87 372.91,576.05 373.39,576.83 C373.79,577.47 373.67,578.00 373.12,578.00 C372.57,578.00 371.84,577.54 371.49,576.98 C370.36,575.16 369.45,576.77 369.62,580.31 C369.75,583.02 369.30,584.00 367.55,584.80 C366.32,585.36 364.72,585.45 364.00,585.00 C362.41,584.02 359.59,586.49 360.27,588.28 C360.53,588.95 360.34,590.56 359.86,591.86 C359.19,593.67 358.41,594.12 356.58,593.77 C353.61,593.20 353.00,595.56 353.00,607.62 C353.00,614.40 352.71,616.00 351.50,616.00 C350.26,616.00 350.00,614.14 350.00,605.25 L 350.01 594.50 L 354.25 589.32 C358.10,584.63 379.47,559.73 384.35,554.25 L 386.35 552.00 L 375.31 552.00 L 364.27 552.00 L 357.92 559.75 C354.42,564.01 351.31,567.72 351.01,568.00 C350.70,568.28 348.26,571.10 345.58,574.28 C342.90,577.46 340.30,579.93 339.81,579.77 C339.32,579.61 333.87,573.40 327.71,565.99 L 316.50 552.50 L 305.17 552.22 L 293.85 551.93 L 301.55 560.72 C312.82,573.55 319.93,581.77 325.27,588.11 L 330.00 593.72 L 330.00 604.30 C330.00,610.96 330.41,615.14 331.11,615.57 C331.88,616.04 331.80,616.51 330.86,617.11 C329.00,618.29 328.25,618.21 327.35,616.76 ZM 453.50 617.27 C447.97,616.47 445.06,611.40 448.25,608.11 C449.27,607.06 448.57,606.88 444.50,607.16 L 439.50 607.50 L 439.43 603.64 C439.37,600.27 438.96,599.60 436.18,598.43 C434.43,597.70 433.00,596.70 433.00,596.21 C433.00,594.96 428.94,593.37 426.25,593.56 C423.71,593.75 423.42,593.02 425.25,591.05 C425.98,590.26 426.03,589.97 425.36,590.34 C424.73,590.69 424.00,590.12 423.73,589.06 C423.35,587.62 423.62,587.30 424.83,587.77 C426.25,588.31 426.26,588.20 424.97,586.80 C424.16,585.92 423.16,585.41 422.75,585.66 C422.34,585.91 421.98,585.75 421.96,585.31 C421.93,584.86 421.54,582.59 421.09,580.25 C420.60,577.72 420.64,576.00 421.19,576.00 C421.70,576.00 431.12,584.87 442.12,595.72 C460.09,613.44 461.95,615.57 460.37,616.72 C459.41,617.42 458.14,617.93 457.56,617.85 C456.98,617.77 455.15,617.51 453.50,617.27 ZM 481.97 617.25 C481.96,616.84 481.97,601.99 482.00,584.25 L 482.05 552.00 L 472.03 552.00 L 462.00 552.00 L 462.00 571.66 L 462.00 591.32 L 442.06 571.66 L 422.12 552.00 L 410.62 552.00 C403.36,552.00 398.87,551.60 398.44,550.90 C398.07,550.30 398.72,548.52 399.88,546.95 C401.05,545.37 402.00,543.61 402.00,543.03 C402.00,541.63 408.21,542.73 409.21,544.30 C409.63,544.96 409.98,546.08 409.98,546.79 C410.00,547.73 410.50,547.81 411.87,547.07 C412.90,546.52 413.99,546.32 414.30,546.64 C414.61,546.95 415.88,546.26 417.12,545.10 C419.94,542.47 421.46,542.46 424.02,545.02 C425.57,546.57 425.81,547.48 425.06,548.89 C423.87,551.10 424.58,552.00 427.51,552.00 C430.05,552.00 433.50,555.39 432.54,556.94 C432.18,557.52 432.36,558.00 432.94,558.00 C433.52,558.00 433.89,558.53 433.75,559.19 C433.61,559.84 434.62,560.40 436.00,560.44 C437.94,560.49 438.74,561.27 439.63,564.00 C440.38,566.29 441.41,567.52 442.64,567.56 C445.72,567.66 448.00,569.11 448.00,570.95 C448.00,571.91 448.89,573.50 449.98,574.48 C451.69,576.03 452.20,576.09 453.67,574.89 C454.81,573.96 455.13,573.92 454.63,574.75 C454.22,575.44 454.26,576.00 454.72,576.00 C455.19,576.00 455.66,577.22 455.79,578.71 C456.09,582.35 457.52,583.64 459.46,582.04 C461.27,580.53 461.44,576.67 459.91,571.90 C459.31,570.03 458.61,567.84 458.36,567.03 C457.95,565.73 457.78,565.73 456.96,567.03 C456.31,568.06 456.03,567.10 456.02,563.83 C456.00,558.52 456.79,555.75 458.10,556.56 C458.60,556.87 459.00,556.66 459.00,556.09 C459.00,555.53 458.16,554.62 457.12,554.07 C455.10,552.98 453.56,549.00 455.17,549.00 C455.70,549.00 456.06,547.99 455.96,546.75 C455.86,545.51 455.83,543.94 455.89,543.25 C456.08,541.15 460.33,541.86 463.41,544.50 C465.39,546.21 467.50,547.00 470.07,547.00 C472.14,547.00 474.45,547.24 475.20,547.52 C475.96,547.81 477.54,547.15 478.72,546.05 C479.90,544.95 482.70,543.75 484.93,543.39 C488.46,542.83 489.01,542.99 489.08,544.62 C489.13,545.65 489.28,547.53 489.42,548.79 C489.67,551.03 486.80,555.47 485.77,554.44 C485.48,554.15 485.30,565.86 485.37,580.45 C485.45,597.41 485.86,606.91 486.49,606.75 C487.60,606.47 488.81,611.62 488.21,614.13 C487.72,616.22 482.04,619.06 481.97,617.25 ZM 583.50 617.00 C583.16,616.45 583.36,616.00 583.94,616.00 C584.60,616.00 585.00,612.96 585.00,608.00 L 585.00 600.00 L 558.50 600.00 C525.49,600.00 528.00,601.39 528.00,583.06 C528.00,570.82 528.12,570.03 530.22,568.56 C532.10,567.24 536.56,567.00 558.72,567.00 L 585.00 567.00 L 585.00 559.45 L 585.00 551.90 L 552.50 552.20 C519.54,552.50 517.53,552.29 521.55,548.96 C522.78,547.93 522.83,547.51 521.80,546.85 C520.82,546.23 520.92,546.03 522.18,546.02 C523.11,546.01 524.14,545.12 524.49,544.05 C525.01,542.39 525.47,542.26 527.47,543.17 C529.03,543.88 529.71,544.90 529.47,546.16 C529.11,548.01 529.98,548.07 554.80,547.95 C571.13,547.87 580.96,547.44 581.77,546.77 C582.47,546.19 583.31,545.98 583.63,546.30 C583.95,546.62 585.15,546.01 586.30,544.94 C587.62,543.70 588.62,543.38 589.03,544.05 C589.39,544.63 590.09,545.03 590.59,544.93 C592.86,544.51 593.56,545.20 593.44,547.75 C593.20,552.87 593.38,552.72 587.25,553.23 C586.51,553.29 586.00,554.76 586.00,556.83 C586.00,558.76 586.27,560.06 586.61,559.73 C586.94,559.39 588.40,560.22 589.85,561.56 C591.92,563.48 592.26,564.36 591.44,565.67 C590.86,566.58 589.56,567.45 588.55,567.60 C587.53,567.75 586.39,568.37 586.01,568.98 C585.53,569.77 577.61,570.01 559.16,569.80 C535.38,569.53 533.00,569.65 533.00,571.15 C533.00,572.10 534.32,573.26 536.08,573.88 C539.07,574.92 539.32,577.00 536.44,577.00 C535.63,577.00 534.97,577.99 534.93,579.25 C534.86,581.41 534.82,581.42 533.91,579.50 C533.24,578.08 533.10,579.19 533.42,583.30 C533.79,588.08 534.33,589.47 536.49,591.17 C538.79,592.98 538.94,593.42 537.68,594.86 C534.96,598.00 536.74,599.00 545.08,599.00 C549.44,599.00 553.00,598.64 553.00,598.19 C553.00,597.75 559.86,597.43 568.25,597.48 C581.13,597.57 584.09,597.88 587.28,599.49 C591.35,601.55 591.86,602.66 592.42,610.82 C592.75,615.70 592.58,616.21 590.33,617.07 C587.13,618.28 584.28,618.25 583.50,617.00 ZM 199.94 615.72 C198.79,614.82 198.44,612.93 198.59,608.50 C198.91,599.43 199.76,590.91 200.41,590.25 C200.74,589.93 201.00,590.08 201.00,590.59 C201.00,591.09 203.36,591.46 206.25,591.40 C209.14,591.34 212.15,591.78 212.94,592.39 C214.04,593.24 214.20,593.20 213.63,592.25 C213.22,591.56 213.36,591.00 213.96,591.00 C214.60,591.00 214.89,589.60 214.67,587.59 C214.36,584.76 214.71,584.00 216.76,583.06 C218.49,582.27 219.60,582.25 220.50,583.00 C221.99,584.24 222.80,582.74 222.52,579.26 C222.40,577.86 223.02,576.81 224.18,576.44 C225.20,576.12 225.84,575.55 225.61,575.18 C225.38,574.81 226.58,574.40 228.27,574.28 C231.36,574.05 233.53,572.13 232.21,570.81 C231.82,570.42 225.02,570.03 217.10,569.95 C200.92,569.77 198.61,568.91 198.78,563.05 C198.88,559.47 201.49,555.13 202.31,557.18 C202.60,557.91 202.88,557.49 202.92,556.25 C202.96,555.01 202.66,554.05 202.25,554.12 C200.12,554.46 199.19,553.77 198.76,551.53 C198.50,550.18 198.79,548.86 199.40,548.61 C200.11,548.32 200.06,548.13 199.26,548.08 C198.49,548.03 198.85,547.03 200.21,545.47 C201.42,544.08 202.99,543.17 203.70,543.44 C204.42,543.71 205.00,543.43 205.00,542.81 C205.00,542.20 205.89,542.49 206.98,543.48 C208.06,544.46 208.73,545.62 208.46,546.06 C207.45,547.69 212.23,547.95 241.28,547.83 C266.37,547.72 271.20,547.47 271.89,546.23 C272.35,545.42 273.93,544.62 275.42,544.46 C279.97,543.96 281.99,548.60 282.00,559.55 C282.00,565.46 281.57,569.03 280.75,569.85 C280.06,570.54 279.44,571.98 279.38,573.05 C279.15,576.60 279.02,576.79 276.75,576.86 C275.51,576.89 273.83,576.98 273.00,577.04 C272.17,577.11 270.49,576.93 269.25,576.64 C267.97,576.34 267.00,576.59 267.00,577.21 C267.00,579.34 261.87,585.00 259.95,585.00 C258.88,585.00 257.96,585.56 257.92,586.25 C257.48,592.78 256.69,593.78 252.16,593.51 C249.14,593.33 246.29,595.44 248.07,596.54 C248.64,596.90 255.99,597.03 264.40,596.84 C276.24,596.58 280.06,596.81 281.34,597.86 C282.24,598.61 282.73,599.63 282.43,600.11 C282.13,600.60 282.36,601.00 282.94,601.00 C283.52,601.00 284.03,602.91 284.07,605.25 C284.12,608.54 284.33,609.05 285.00,607.50 C285.75,605.74 285.87,605.72 285.93,607.29 C285.97,608.27 286.69,610.12 287.52,611.39 C288.89,613.48 288.89,613.85 287.46,615.04 C286.58,615.76 284.77,616.40 283.43,616.46 C281.04,616.56 281.00,616.42 281.00,608.30 L 281.00 600.04 L 257.10 599.77 L 233.20 599.50 L 255.85 582.50 L 278.50 565.50 L 278.80 558.75 L 279.09 552.00 L 241.50 552.00 L 203.91 552.00 L 204.21 559.25 L 204.50 566.50 L 227.14 567.00 L 249.79 567.50 L 226.36 585.00 L 202.93 602.50 L 203.13 609.44 C203.34,616.55 202.68,617.85 199.94,615.72 ZM 420.77 611.75 C421.29,606.10 422.91,601.65 422.97,605.75 C422.99,606.99 423.48,608.00 424.06,608.00 C424.64,608.00 424.84,608.45 424.50,609.00 C424.16,609.55 424.32,610.00 424.85,610.00 C425.39,610.00 425.72,610.56 425.60,611.25 C424.95,614.92 423.67,617.00 422.08,617.00 C420.53,617.00 420.36,616.30 420.77,611.75 ZM 506.21 615.74 C504.93,615.14 504.14,614.07 504.43,613.33 C504.71,612.60 504.50,612.00 503.97,612.00 C503.44,612.00 503.00,610.85 503.00,609.44 C503.00,608.03 503.36,607.10 503.79,607.37 C504.23,607.64 504.40,606.32 504.18,604.43 C503.67,600.05 506.22,599.69 507.96,603.90 C509.35,607.25 512.26,610.12 516.43,612.25 C519.35,613.74 519.35,613.74 517.15,614.92 C513.99,616.61 508.87,617.00 506.21,615.74 ZM 504.49 563.75 C503.10,559.85 503.38,554.76 505.10,552.70 C506.11,551.49 506.95,551.05 506.97,551.72 C506.99,552.39 507.63,552.70 508.40,552.40 C509.17,552.11 510.09,552.34 510.46,552.93 C510.82,553.52 512.22,554.00 513.56,554.00 C515.87,554.00 515.79,554.20 512.05,557.58 C509.87,559.55 507.81,562.02 507.48,563.08 C506.78,565.26 505.16,565.62 504.49,563.75 ZM 257.45 521.09 C257.82,520.49 257.53,519.99 256.81,519.98 C255.93,519.97 255.86,519.73 256.59,519.23 C257.19,518.83 260.23,514.67 263.35,510.00 L 269.02 501.50 L 255.26 500.97 C239.90,500.39 235.98,499.23 230.88,493.79 C229.18,491.98 227.16,489.05 226.40,487.28 C224.91,483.86 224.49,477.92 225.75,478.12 C228.18,478.50 229.01,477.66 229.08,474.75 C229.12,472.96 229.41,472.17 229.73,473.00 C230.04,473.83 230.63,474.73 231.04,475.00 C231.45,475.27 232.05,478.16 232.38,481.40 C232.71,484.65 233.14,487.48 233.35,487.68 C233.55,487.89 234.94,487.59 236.43,487.03 C240.05,485.65 241.68,487.38 241.36,492.25 C241.13,495.68 242.23,496.92 244.48,495.75 C244.75,495.61 245.67,496.51 246.54,497.75 C247.95,499.76 248.95,500.00 256.08,500.00 C263.68,500.00 264.09,499.88 265.01,497.47 C266.17,494.43 268.86,493.17 270.09,495.10 C270.83,496.27 270.97,496.26 271.00,495.00 C271.02,494.05 271.30,493.89 271.77,494.57 C273.07,496.48 275.90,496.95 277.35,495.51 C278.13,494.73 279.00,494.33 279.29,494.62 C279.58,494.91 279.67,493.54 279.48,491.57 C279.19,488.40 279.45,487.94 281.83,487.42 C283.30,487.10 285.01,486.68 285.63,486.49 C286.26,486.30 286.82,484.66 286.88,482.83 C287.19,474.20 289.00,469.92 291.48,471.98 C292.91,473.17 295.27,468.88 294.42,466.64 C293.57,464.43 296.76,462.01 300.01,462.39 C302.69,462.70 302.90,462.50 302.60,459.89 C302.42,458.33 302.61,457.26 303.03,457.52 C304.29,458.30 305.12,453.09 304.05,451.08 C302.53,448.25 305.65,446.36 308.68,448.28 C310.29,449.31 310.74,448.18 310.50,443.72 C310.28,439.68 311.04,438.75 315.00,438.21 C317.98,437.80 322.20,434.13 321.31,432.70 C320.97,432.15 321.17,431.99 321.76,432.35 C322.35,432.72 322.99,432.54 323.18,431.96 C323.37,431.38 324.51,430.84 325.72,430.75 C327.80,430.59 327.88,430.24 327.40,423.41 L 326.89 416.23 L 329.86 415.20 C331.49,414.63 333.09,414.43 333.41,414.75 C333.97,415.30 334.38,413.08 334.26,410.21 C334.19,408.45 338.64,405.65 340.41,406.33 C342.02,406.95 343.21,404.71 342.40,402.60 C342.10,401.83 340.99,400.97 339.93,400.69 C338.87,400.41 338.25,400.59 338.56,401.09 C338.87,401.59 338.42,402.00 337.56,402.00 C336.70,402.00 336.00,402.45 336.00,403.00 C336.00,403.55 335.02,404.00 333.83,404.00 C332.64,404.00 331.95,404.28 332.30,404.63 C332.65,404.98 331.93,406.01 330.72,406.92 C329.08,408.15 326.84,408.51 322.18,408.30 C318.71,408.15 315.21,407.66 314.41,407.21 C313.45,406.67 323.77,402.84 344.73,395.95 C362.20,390.20 377.17,385.35 378.00,385.16 C378.83,384.98 371.62,390.11 362.00,396.57 L 344.50 408.33 L 321.50 442.17 C308.85,460.79 294.11,482.38 288.75,490.15 C283.39,497.92 279.00,504.65 279.00,505.11 C279.00,505.57 284.74,501.59 291.75,496.26 C303.69,487.19 343.47,456.66 358.00,445.41 C361.58,442.64 368.55,437.27 373.50,433.47 C378.45,429.67 387.00,423.07 392.50,418.80 C398.00,414.53 402.80,411.03 403.16,411.02 C403.53,411.01 404.64,414.44 405.63,418.65 C409.17,433.64 410.76,433.09 426.62,411.35 C433.70,401.65 439.75,393.33 440.05,392.87 C440.35,392.41 442.04,391.74 443.80,391.39 C446.51,390.85 447.00,391.04 447.00,392.67 C447.00,393.73 447.48,395.08 448.06,395.66 C448.82,396.42 448.63,397.23 447.43,398.43 C446.23,399.63 445.42,399.82 444.66,399.06 C443.19,397.59 440.73,397.73 441.28,399.25 C441.53,399.94 441.32,401.29 440.83,402.25 C440.24,403.40 440.31,404.00 441.04,404.00 C441.75,404.00 441.67,404.52 440.82,405.47 C440.09,406.27 438.93,407.61 438.24,408.43 C437.55,409.26 436.31,409.67 435.49,409.36 C434.67,409.04 433.94,409.17 433.87,409.64 C433.80,410.11 433.63,411.59 433.50,412.92 C433.19,416.03 430.17,418.38 428.38,416.90 C427.40,416.09 426.71,416.74 425.47,419.67 C424.04,423.06 423.96,425.80 425.16,431.00 C425.41,432.09 424.69,432.47 422.50,432.38 C420.85,432.32 418.38,432.22 417.00,432.16 C415.62,432.11 411.91,432.32 408.75,432.62 C404.75,433.01 403.00,432.83 403.00,432.03 C403.00,431.40 402.55,431.16 402.00,431.50 C401.45,431.84 401.00,431.42 401.00,430.56 C401.00,429.70 400.55,429.00 400.00,429.00 C399.45,429.00 399.00,428.13 399.00,427.06 C399.00,424.50 393.81,424.67 393.43,427.24 C392.93,430.70 389.96,432.43 384.93,432.21 C380.14,432.01 376.28,434.03 377.55,436.08 C377.86,436.58 377.41,438.00 376.56,439.22 C375.70,440.44 375.00,441.14 375.00,440.77 C375.00,440.41 373.65,440.57 372.00,441.15 C370.35,441.72 369.23,442.56 369.51,443.02 C369.79,443.47 369.36,444.50 368.56,445.30 C367.75,446.10 367.32,446.99 367.60,447.27 C368.28,447.94 361.97,450.10 361.03,449.52 C360.62,449.26 360.41,450.27 360.58,451.75 C360.74,453.23 360.40,455.02 359.81,455.72 C358.53,457.27 354.00,457.43 354.00,455.93 C354.00,455.27 352.33,454.99 349.75,455.21 C345.57,455.56 345.51,455.62 345.67,459.16 C345.80,462.09 345.37,462.96 343.37,463.88 C342.01,464.50 340.25,465.00 339.45,465.00 C338.13,465.00 337.56,466.70 337.89,469.59 C338.02,470.77 333.28,473.28 332.18,472.62 C331.48,472.20 329.54,473.91 329.19,475.25 C329.09,475.66 328.97,476.11 328.92,476.25 C328.88,476.39 328.69,477.35 328.49,478.40 C327.99,481.08 326.07,481.98 323.19,480.88 C321.84,480.37 320.62,480.07 320.50,480.22 C320.37,480.37 319.71,481.57 319.03,482.88 C318.07,484.73 318.06,485.42 319.00,486.00 C320.56,486.97 318.54,488.35 315.00,488.74 C308.70,489.44 305.00,490.29 305.00,491.04 C305.00,492.58 308.06,494.92 309.40,494.40 C310.14,494.12 311.49,494.63 312.40,495.54 C313.31,496.45 314.71,496.94 315.53,496.63 C316.39,496.30 317.00,496.64 317.00,497.45 C317.00,498.21 316.44,499.06 315.75,499.33 C315.06,499.61 368.68,499.87 434.91,499.91 C501.13,499.95 555.55,500.21 555.83,500.49 C556.10,500.77 501.55,501.00 434.59,501.00 L 312.84 501.00 L 303.67 507.93 C298.63,511.74 293.48,515.82 292.23,516.99 C290.81,518.32 289.25,518.90 288.08,518.52 C286.44,518.01 286.34,517.55 287.32,514.96 C288.08,512.94 289.12,512.00 290.60,512.00 C294.08,512.00 295.37,508.93 293.59,504.86 C292.46,502.28 289.26,503.75 288.77,507.09 C288.53,508.75 288.81,510.02 289.42,510.04 C290.02,510.05 289.47,510.64 288.22,511.34 C286.96,512.03 286.14,512.81 286.38,513.05 C286.63,513.30 284.39,513.51 281.41,513.51 C278.44,513.52 276.00,513.21 276.00,512.82 C276.00,512.43 274.99,512.37 273.75,512.68 C272.51,512.99 270.08,513.30 268.35,513.37 C265.49,513.49 265.23,513.77 265.45,516.53 C265.58,518.20 265.20,520.01 264.59,520.54 C263.00,521.96 256.60,522.45 257.45,521.09 ZM 303.21 502.29 C303.59,502.10 303.56,500.98 303.12,499.81 C302.22,497.36 298.00,496.22 298.00,498.42 C298.00,499.20 297.73,500.55 297.39,501.42 C296.92,502.65 297.42,502.96 299.64,502.82 C301.21,502.72 302.82,502.48 303.21,502.29 ZM 578.68 521.35 C578.31,520.97 576.76,520.49 575.25,520.28 C573.74,520.07 571.60,519.75 570.50,519.57 C569.40,519.40 566.70,519.15 564.50,519.03 L 560.50 518.80 L 564.02 517.96 C575.07,515.34 585.49,507.31 590.37,497.66 C591.87,494.70 593.60,489.20 594.23,485.44 C594.85,481.67 595.54,479.13 595.76,479.79 C596.04,480.62 596.71,480.69 597.97,480.01 C599.52,479.18 599.88,479.55 600.44,482.54 C600.80,484.46 600.86,486.41 600.58,486.87 C600.29,487.34 600.46,489.13 600.96,490.85 C601.72,493.49 601.53,494.22 599.77,495.45 C598.62,496.26 597.35,496.72 596.95,496.47 C595.25,495.42 593.58,499.61 593.49,505.17 C593.39,511.52 592.68,512.58 587.79,513.64 C586.30,513.97 585.11,514.52 585.16,514.87 C585.35,516.37 584.92,518.58 584.23,519.62 C583.28,521.06 579.55,522.22 578.68,521.35 ZM 216.47 519.60 C214.84,518.41 214.77,517.98 215.94,516.57 C217.11,515.16 217.00,514.65 215.10,512.88 C213.89,511.75 212.32,511.05 211.61,511.32 C208.76,512.41 207.38,509.48 206.53,500.50 C206.06,495.62 205.08,494.17 202.43,494.46 C200.27,494.69 199.99,494.32 199.88,491.11 C199.82,489.13 199.88,487.05 200.02,486.50 C200.16,485.95 200.20,483.70 200.12,481.50 C200.01,478.70 200.25,477.93 200.90,478.93 C201.61,480.01 202.00,479.53 202.48,476.93 C203.33,472.43 202.29,217.79 201.41,212.23 C201.04,209.87 200.34,207.71 199.87,207.42 C198.30,206.45 198.85,199.35 200.50,199.17 C201.32,199.07 202.68,198.93 203.50,198.83 C205.79,198.58 205.29,197.09 202.50,195.82 C198.41,193.96 199.33,190.35 203.75,190.93 C204.44,191.01 205.00,190.59 205.00,189.98 C205.00,189.38 205.53,189.21 206.17,189.61 C206.96,190.09 207.13,189.78 206.70,188.66 C206.35,187.75 206.44,187.00 206.89,187.00 C207.35,187.00 207.51,185.87 207.24,184.49 C206.98,183.12 207.31,181.34 207.97,180.54 C208.63,179.74 208.89,178.62 208.53,178.06 C208.14,177.42 208.55,177.28 209.61,177.68 C210.84,178.15 211.10,177.98 210.54,177.07 C209.93,176.08 210.20,176.04 211.75,176.87 C212.84,177.45 214.04,177.62 214.42,177.25 C214.80,176.87 214.78,177.41 214.38,178.44 C213.84,179.86 213.99,180.12 214.98,179.51 C215.71,179.06 214.97,180.67 213.33,183.10 C211.68,185.52 209.48,189.52 208.42,192.00 C206.56,196.36 206.49,200.94 206.29,339.50 C206.16,427.62 206.44,484.38 207.03,487.39 C209.35,499.19 218.55,510.55 229.46,515.07 C232.51,516.33 235.00,517.73 235.00,518.16 C235.00,519.70 229.66,520.28 226.39,519.10 C223.65,518.11 222.68,518.17 220.72,519.44 C218.70,520.77 218.10,520.79 216.47,519.60 ZM 557.00 499.01 C557.00,497.74 558.28,496.74 561.16,495.78 C563.52,494.99 565.47,493.66 565.66,492.70 C566.37,489.14 566.58,488.46 567.35,487.23 C567.78,486.54 568.51,486.19 568.96,486.47 C569.41,486.75 570.30,486.35 570.94,485.58 C571.73,484.62 571.77,483.97 571.05,483.53 C569.48,482.56 569.78,479.30 571.50,478.64 C572.76,478.15 573.00,474.96 573.00,458.44 C573.00,439.65 572.91,438.79 571.00,438.29 C569.29,437.84 569.00,436.93 569.00,432.00 C569.00,427.07 569.29,426.16 571.00,425.71 C572.68,425.27 573.00,424.35 573.00,420.00 C573.00,415.65 572.68,414.73 571.00,414.29 C569.12,413.80 569.00,412.93 569.00,400.24 C569.00,389.60 569.31,386.48 570.45,385.61 C571.41,384.87 572.13,381.54 572.59,375.69 C573.26,367.25 573.20,366.86 571.14,366.33 C568.61,365.67 568.19,362.00 570.64,362.00 C573.55,362.00 574.94,358.78 574.94,352.00 C574.94,345.22 573.55,342.00 570.64,342.00 C569.31,342.00 569.00,340.90 569.00,336.12 C569.00,331.07 569.29,330.16 571.00,329.71 C572.90,329.21 573.00,328.35 573.00,312.00 C573.00,295.65 572.90,294.79 571.00,294.29 C569.29,293.84 569.00,292.93 569.00,288.00 C569.00,282.94 569.26,282.16 571.15,281.67 C573.26,281.12 573.30,280.81 572.71,268.33 C572.24,258.44 571.75,255.29 570.55,254.41 C568.38,252.83 568.62,250.33 571.00,249.71 C572.92,249.21 573.00,248.35 573.00,229.17 L 573.00 209.16 L 570.00 208.50 C568.12,208.09 567.01,207.22 567.02,206.17 C567.03,204.73 567.16,204.70 568.00,206.00 C568.82,207.27 568.97,207.22 568.98,205.68 C568.99,204.69 568.48,202.91 567.85,201.73 C567.22,200.55 566.66,197.99 566.60,196.04 L 566.50 192.50 L 561.50 192.50 C558.75,192.50 555.91,191.94 555.18,191.25 C554.45,190.56 552.65,189.99 551.18,189.98 C549.08,189.97 548.83,189.76 550.00,189.00 C551.04,188.33 548.95,188.03 543.25,188.02 C538.41,188.01 535.00,188.41 535.00,189.00 C535.00,190.28 531.31,190.31 530.53,189.04 C529.71,187.73 468.00,187.70 468.00,189.02 C468.00,190.30 464.30,190.29 463.51,189.01 C463.11,188.37 431.97,188.05 375.20,188.10 C326.96,188.15 288.40,188.56 289.50,189.02 C291.21,189.74 291.07,189.87 288.50,189.95 C286.18,190.01 285.84,190.25 287.00,191.00 C288.08,191.70 287.24,191.94 284.00,191.87 C280.01,191.78 279.84,191.68 282.50,191.07 L 285.50 190.38 L 281.75 189.69 C271.56,187.82 270.73,187.75 271.42,188.87 C271.87,189.59 271.22,190.00 269.62,190.00 C268.24,190.00 266.83,189.53 266.48,188.97 C265.53,187.43 250.53,188.16 250.38,189.75 C250.10,192.51 249.95,192.81 248.53,193.35 C247.72,193.66 246.37,193.23 245.54,192.40 C244.48,191.34 243.03,191.07 240.76,191.52 C238.97,191.87 236.29,192.40 234.82,192.68 C232.28,193.18 232.15,193.46 232.54,198.02 C232.76,200.67 233.20,204.32 233.52,206.14 C233.84,207.95 233.80,209.14 233.43,208.77 C232.24,207.57 230.42,210.42 230.41,213.50 C230.38,225.76 229.89,231.38 228.99,230.00 C228.33,229.00 228.04,238.98 228.12,259.87 C228.18,278.08 228.60,290.67 229.10,289.87 C229.69,288.94 229.97,289.63 229.97,292.00 C229.97,294.62 229.73,295.12 229.00,294.00 C228.33,292.96 228.03,294.82 228.02,300.10 C227.99,311.40 229.16,323.35 230.14,321.81 C230.66,320.99 230.98,322.12 230.98,324.81 C230.99,327.22 230.59,328.86 230.07,328.54 C228.34,327.48 227.93,329.88 228.67,336.71 C229.27,342.31 229.52,342.97 230.08,340.50 C230.75,337.57 230.77,337.58 230.88,341.25 C230.95,343.31 231.45,345.00 232.00,345.00 C233.66,345.00 233.16,358.21 231.42,360.50 C230.34,361.91 229.96,364.48 230.11,369.26 C230.22,372.97 230.02,376.31 229.66,376.67 C229.30,377.04 229.05,378.50 229.12,379.92 C229.23,382.40 229.27,382.38 230.00,379.50 C230.72,376.68 230.77,376.76 230.88,380.75 C230.95,383.09 231.45,385.00 232.00,385.00 C232.57,385.00 233.00,387.95 233.00,391.84 C233.00,398.16 232.81,398.76 230.50,399.82 C227.20,401.32 226.93,406.53 230.11,407.54 C231.93,408.11 232.14,408.73 231.61,412.04 C231.26,414.23 231.43,416.15 232.00,416.50 C234.04,417.76 233.09,422.90 230.50,424.59 C228.27,426.05 228.00,426.92 228.00,432.50 C228.00,438.08 228.27,438.95 230.50,440.41 C231.95,441.36 232.99,442.98 232.97,444.27 C232.93,446.86 230.63,450.29 229.61,449.28 C229.23,448.90 229.23,452.80 229.61,457.94 C230.11,464.87 230.00,467.12 229.15,466.59 C228.37,466.11 227.96,467.10 227.88,469.69 C227.82,471.79 227.55,472.65 227.28,471.60 C226.89,470.08 226.62,469.98 225.91,471.10 C225.40,471.92 225.02,415.68 225.02,336.71 C225.00,204.25 225.05,200.83 226.94,197.12 C229.51,192.08 235.05,187.33 239.88,186.03 C242.55,185.31 294.13,185.06 403.30,185.24 L 562.83 185.50 L 567.11 188.51 C569.70,190.33 572.40,193.48 573.95,196.48 L 576.50 201.45 L 576.50 342.50 L 576.50 483.55 L 573.95 488.52 C571.23,493.79 565.73,498.37 560.25,499.93 C557.42,500.74 557.00,500.62 557.00,499.01 ZM 227.69 275.27 C227.44,274.30 227.22,274.85 227.19,276.50 C227.17,278.15 227.38,278.95 227.66,278.27 C227.93,277.59 227.95,276.24 227.69,275.27 ZM 595.00 451.17 C595.00,448.51 595.28,446.05 595.62,445.71 C596.97,444.36 599.00,448.09 599.00,451.93 C599.00,455.33 598.67,456.00 597.00,456.00 C595.28,456.00 595.00,455.33 595.00,451.17 ZM 595.62 442.29 C594.84,441.50 594.81,433.66 595.58,431.64 C596.78,428.52 599.00,431.14 599.00,435.68 C599.00,439.84 597.03,443.70 595.62,442.29 ZM 595.68 424.62 C594.95,422.70 594.73,414.00 595.42,414.00 C598.05,414.00 599.00,415.64 599.00,420.17 C599.00,422.90 598.59,424.87 598.09,424.55 C597.58,424.24 596.99,424.53 596.77,425.19 C596.52,425.93 596.10,425.71 595.68,424.62 ZM 296.22 415.75 C295.21,413.73 294.51,407.13 294.87,402.87 C294.94,401.98 296.46,400.65 298.25,399.93 C302.01,398.41 303.03,397.24 302.28,395.29 C301.63,393.59 304.75,391.08 307.56,391.03 C308.70,391.01 310.60,390.09 311.78,388.99 C313.61,387.28 313.77,386.60 312.83,384.52 C312.21,383.17 311.28,382.33 310.75,382.65 C310.23,382.98 310.28,382.35 310.87,381.25 C311.45,380.16 311.68,379.02 311.38,378.72 C310.49,377.83 313.00,373.92 314.30,374.16 C317.09,374.69 319.75,372.89 319.75,370.47 C319.75,369.11 319.42,368.00 319.01,368.00 C318.02,368.00 318.85,360.88 320.01,359.49 C320.94,358.36 327.53,358.20 328.61,359.27 C329.27,359.94 325.53,367.44 312.15,392.31 L 303.11 409.11 L 306.31 408.81 C309.14,408.53 309.54,408.81 309.82,411.25 C310.04,413.21 309.69,414.00 308.57,414.00 C307.70,414.00 307.00,414.40 307.00,414.89 C307.00,416.03 304.36,417.13 300.42,417.62 C298.01,417.93 297.10,417.52 296.22,415.75 ZM 411.04 405.25 C409.78,399.34 408.52,393.92 408.25,393.21 C407.90,392.29 408.51,392.05 410.39,392.39 C415.45,393.31 416.81,394.09 417.39,396.42 C417.71,397.71 418.88,399.00 419.99,399.29 C422.07,399.83 422.18,399.60 422.41,394.50 C422.49,392.85 422.86,391.00 423.25,390.39 C423.63,389.78 423.63,388.96 423.24,388.57 C422.21,387.54 422.34,384.68 423.47,383.40 C424.06,382.73 425.67,382.59 427.64,383.03 C429.57,383.47 431.27,383.33 431.92,382.68 C432.52,382.08 433.00,381.97 433.00,382.42 C433.00,382.86 434.15,382.48 435.55,381.56 C436.95,380.64 438.91,380.15 439.91,380.47 C441.27,380.90 442.06,380.27 442.99,378.03 C443.97,375.65 444.86,375.00 447.12,375.00 C448.82,375.00 449.90,375.49 449.75,376.19 C449.61,376.85 450.40,377.51 451.50,377.67 C452.60,377.83 452.93,377.71 452.24,377.40 C451.55,377.08 451.24,376.42 451.55,375.91 C451.86,375.41 451.67,375.00 451.13,375.00 C450.15,375.00 448.43,371.17 448.79,369.79 C448.89,369.39 448.23,369.36 447.32,369.71 C446.16,370.15 445.90,369.97 446.46,369.07 C447.07,368.08 446.80,368.04 445.25,368.87 C444.16,369.45 443.08,369.74 442.85,369.52 C442.63,369.29 440.52,368.99 438.18,368.86 C435.83,368.72 433.43,368.02 432.84,367.30 C432.15,366.48 432.12,366.00 432.76,366.00 C434.28,366.00 435.10,361.68 433.75,360.84 C433.10,360.44 432.10,360.49 431.53,360.95 C429.86,362.29 425.14,361.87 423.80,360.26 C423.12,359.44 422.50,357.59 422.41,356.14 C422.17,351.93 422.08,351.76 420.49,352.36 C418.77,353.03 413.92,351.44 414.11,350.27 C414.44,348.24 413.84,347.19 412.07,346.73 C410.66,346.36 410.30,346.63 410.73,347.75 C411.12,348.77 410.85,349.11 409.91,348.78 C409.13,348.51 408.56,347.55 408.64,346.64 C408.72,345.74 408.27,344.96 407.64,344.92 C407.01,344.87 405.33,344.75 403.90,344.64 C402.47,344.54 400.77,345.02 400.11,345.72 C399.46,346.43 399.36,347.00 399.89,347.00 C400.43,347.00 401.12,347.79 401.44,348.75 C401.76,349.71 403.73,352.45 405.83,354.84 C409.63,359.17 409.64,359.20 408.72,364.84 C407.65,371.45 407.58,374.50 408.41,378.16 C409.11,381.28 407.55,386.42 406.63,384.00 C406.32,383.17 404.90,377.33 403.47,371.00 C394.69,331.99 394.84,333.00 397.91,333.00 C398.97,333.00 408.53,338.89 419.16,346.09 C429.80,353.28 444.91,363.50 452.74,368.80 C460.57,374.09 466.64,378.74 466.24,379.12 C465.83,379.50 458.54,381.02 450.03,382.48 C441.52,383.95 434.30,385.32 433.97,385.52 C433.65,385.71 429.15,392.66 423.97,400.94 C418.79,409.22 414.28,416.00 413.94,416.00 C413.61,416.00 412.30,411.16 411.04,405.25 ZM 595.68 400.62 C595.31,399.64 595.00,397.25 595.00,395.31 C595.00,392.51 595.32,391.91 596.58,392.39 C597.45,392.73 598.35,393.00 598.58,393.00 C598.81,393.00 599.00,394.83 599.00,397.06 C599.00,399.29 598.59,400.86 598.09,400.55 C597.58,400.24 596.99,400.53 596.77,401.19 C596.52,401.93 596.10,401.71 595.68,400.62 ZM 466.69 391.61 C465.37,390.19 464.00,389.33 463.64,389.70 C462.82,390.52 453.05,390.73 453.55,389.92 C453.75,389.60 458.65,388.53 464.45,387.53 C480.33,384.81 480.67,382.86 466.95,373.07 C461.99,369.53 457.48,366.08 456.92,365.40 C456.17,364.50 464.28,355.42 487.70,330.95 C531.62,285.07 536.32,280.00 535.06,280.00 C534.45,280.00 530.03,281.53 525.23,283.40 C520.43,285.27 510.42,289.13 503.00,291.97 C488.62,297.47 473.13,303.45 442.50,315.34 C432.05,319.39 423.33,322.56 423.11,322.38 C422.37,321.76 425.93,317.36 439.65,301.91 C447.27,293.33 461.33,277.42 470.90,266.54 C489.35,245.57 491.13,244.46 489.13,255.18 C488.99,255.94 485.16,257.42 482.17,257.88 C481.71,257.94 481.34,258.79 481.35,259.75 C481.37,265.37 480.75,267.79 478.63,270.25 C477.33,271.76 475.81,273.00 475.25,273.00 C474.69,273.00 473.49,274.12 472.59,275.50 C471.69,276.88 470.28,278.00 469.45,278.00 C468.62,278.00 467.68,278.67 467.36,279.49 C467.05,280.32 466.48,280.79 466.09,280.56 C465.71,280.32 465.49,281.51 465.61,283.20 C465.88,287.17 463.35,289.90 459.75,289.49 C456.58,289.13 455.32,290.48 456.97,292.47 C458.76,294.62 456.31,297.69 452.71,297.79 C451.07,297.84 449.23,298.42 448.61,299.08 C447.78,299.99 447.83,300.11 448.82,299.55 C449.64,299.08 450.06,299.30 449.95,300.15 C449.46,303.67 449.85,303.76 461.32,302.81 C464.76,302.53 465.09,302.26 464.67,300.07 C464.42,298.74 464.83,297.03 465.58,296.28 C467.41,294.45 475.96,294.84 478.31,296.86 C479.80,298.15 480.27,298.18 480.95,297.07 C481.46,296.25 482.82,295.92 484.42,296.23 C485.86,296.51 487.29,296.34 487.58,295.87 C487.88,295.39 487.53,294.99 486.81,294.98 C485.97,294.97 485.88,294.70 486.54,294.23 C487.12,293.83 487.68,292.18 487.80,290.56 C487.91,288.94 488.55,287.28 489.22,286.86 C490.95,285.80 504.21,286.51 506.62,287.80 C508.40,288.75 508.79,288.47 509.89,285.44 C510.68,283.24 511.78,282.00 512.94,282.00 C513.94,282.00 515.28,281.37 515.91,280.61 C517.16,279.11 524.00,277.89 524.00,279.17 C524.00,279.59 524.63,279.70 525.40,279.40 C526.17,279.11 527.09,279.34 527.46,279.93 C528.78,282.07 529.79,280.91 529.63,277.44 C529.53,275.48 529.69,273.52 529.98,273.08 C530.27,272.65 532.82,271.99 535.66,271.63 C541.35,270.89 543.48,272.06 544.61,276.58 C545.37,279.63 543.52,282.00 540.38,282.00 C538.19,282.00 537.38,283.43 537.92,286.38 C538.01,286.86 537.33,288.09 536.40,289.11 C535.01,290.65 534.95,291.23 536.02,292.52 C537.72,294.57 536.09,296.26 532.30,296.40 C529.74,296.49 529.49,296.83 529.43,300.43 C529.35,305.17 527.10,307.17 524.00,305.23 C522.40,304.23 521.97,304.23 521.85,305.24 C521.68,306.60 521.37,308.06 520.99,309.25 C520.86,309.66 520.69,310.56 520.62,311.25 C520.50,312.47 520.09,312.62 516.01,312.88 C514.75,312.95 513.50,314.27 512.56,316.50 C511.76,318.42 510.63,320.06 510.05,320.12 C509.47,320.19 508.55,320.36 508.00,320.50 C507.45,320.64 506.58,320.81 506.06,320.88 C505.55,320.94 504.99,322.46 504.81,324.24 C504.58,326.67 503.78,327.83 501.63,328.86 C499.21,330.01 498.62,330.01 497.89,328.86 C497.32,327.95 497.03,328.70 497.02,331.13 C497.00,335.45 494.77,337.89 492.54,336.04 C490.27,334.15 488.71,335.85 489.32,339.57 C489.97,343.59 488.03,345.59 483.87,345.15 C481.27,344.88 481.00,345.14 481.00,347.90 C481.00,350.28 480.34,351.29 477.97,352.52 C476.30,353.38 474.54,353.83 474.04,353.52 C473.54,353.22 472.82,353.48 472.44,354.10 C472.06,354.72 472.25,355.54 472.87,355.92 C474.60,356.99 470.48,360.94 468.25,360.35 C466.75,359.96 466.37,360.54 466.17,363.52 C465.95,366.74 466.15,367.09 467.91,366.53 C470.49,365.71 474.05,369.16 473.51,371.95 C473.13,373.90 473.95,374.44 476.74,374.08 C477.42,373.99 478.86,374.39 479.94,374.97 C481.92,376.03 482.08,379.17 480.66,389.28 C480.15,392.93 479.80,393.20 474.99,393.61 C471.97,393.86 471.10,393.63 471.65,392.73 C472.14,391.90 471.84,391.94 470.73,392.84 C469.30,394.00 468.75,393.83 466.69,391.61 ZM 445.50 309.71 C448.77,307.73 448.38,306.00 444.67,306.00 C441.80,306.00 441.37,306.32 441.58,308.25 C441.72,309.49 441.87,310.61 441.92,310.75 C442.10,311.30 443.60,310.87 445.50,309.71 ZM 328.56 357.89 C328.29,357.13 327.87,354.70 327.63,352.50 C327.39,350.30 327.07,348.05 326.90,347.50 C326.74,346.95 326.96,345.45 327.40,344.17 C328.08,342.14 328.69,341.89 332.09,342.29 C335.44,342.67 336.00,342.46 336.00,340.80 C336.00,339.74 335.62,338.11 335.16,337.18 C334.13,335.10 335.77,326.74 337.06,327.54 C337.58,327.86 338.00,327.63 338.00,327.04 C338.00,326.43 338.98,326.19 340.25,326.49 C343.81,327.33 345.47,325.75 343.97,322.94 C341.69,318.67 340.90,318.31 335.65,319.14 C329.40,320.13 326.02,318.71 330.50,316.98 C340.49,313.10 355.45,307.98 356.12,308.22 C356.80,308.46 331.36,356.97 329.67,358.67 C329.33,359.01 328.83,358.66 328.56,357.89 ZM 595.00 344.06 C595.00,336.74 595.16,336.14 597.00,336.27 C598.80,336.41 599.00,337.14 599.00,343.61 C599.00,350.42 598.33,352.00 595.42,352.00 C595.19,352.00 595.00,348.43 595.00,344.06 ZM 301.87 329.02 C293.36,327.34 291.08,318.09 299.27,318.45 C302.31,318.58 302.63,317.97 303.46,310.53 C304.15,304.30 306.12,301.92 308.72,304.18 C309.70,305.04 311.29,305.72 312.25,305.70 C313.87,305.67 313.85,305.41 312.00,302.28 C310.90,300.41 310.00,298.44 310.00,297.90 C310.00,296.00 312.42,294.36 314.61,294.78 C317.45,295.32 319.16,292.29 318.86,287.23 C318.58,282.48 321.51,277.64 324.22,278.35 C326.44,278.93 326.79,278.20 327.48,271.50 C327.77,268.75 328.07,265.94 328.17,265.25 C328.32,264.09 329.44,263.60 331.25,263.88 C331.66,263.95 332.00,263.60 332.00,263.11 C332.00,262.62 332.79,262.28 333.75,262.36 C335.24,262.48 335.47,261.68 335.33,257.00 C335.24,253.98 335.01,250.60 334.83,249.50 C334.56,247.84 335.13,247.45 338.17,247.19 C341.21,246.94 342.02,246.38 342.87,243.94 C343.69,241.58 344.48,241.00 346.85,241.00 C349.19,241.00 349.99,240.43 350.70,238.25 C351.20,236.74 351.48,234.60 351.34,233.50 C350.14,224.13 350.16,224.00 352.89,223.28 C354.32,222.90 356.07,222.70 356.76,222.84 C358.39,223.17 358.77,221.90 359.38,214.10 C359.96,206.81 360.37,206.16 364.60,205.83 C366.29,205.71 367.72,205.13 367.77,204.55 C367.83,203.97 368.10,202.60 368.36,201.50 C368.63,200.40 368.88,199.16 368.92,198.75 C369.08,197.21 373.08,198.07 374.73,200.00 C376.20,201.72 377.68,202.00 385.22,202.00 C390.41,202.00 394.00,202.41 394.00,203.00 C394.00,203.55 395.35,204.00 397.00,204.00 C398.65,204.00 400.00,203.55 400.00,203.00 C400.00,202.45 401.83,202.00 404.06,202.00 C406.51,202.00 407.87,202.40 407.50,203.00 C407.10,203.64 410.37,203.94 416.69,203.84 C425.29,203.69 425.82,203.59 421.00,203.00 L 415.50 202.33 L 422.75 202.16 C427.03,202.07 430.00,202.41 430.00,203.00 C430.00,203.64 437.57,203.99 450.75,203.98 C464.52,203.97 471.00,203.64 470.00,203.00 C468.99,202.35 472.80,202.03 481.69,202.02 C489.42,202.01 495.14,202.41 495.50,203.00 C495.84,203.55 499.47,204.00 503.56,204.00 C507.85,204.00 511.00,203.58 511.00,203.00 C511.00,202.45 512.80,202.00 515.00,202.00 C517.20,202.00 519.00,201.57 519.00,201.05 C519.00,199.81 525.26,198.63 527.69,199.40 C529.28,199.91 529.57,201.09 529.63,207.50 C529.67,211.62 529.44,215.04 529.10,215.08 C525.58,215.57 524.16,215.56 524.47,215.04 C524.68,214.71 524.02,214.43 523.00,214.43 C521.98,214.43 521.21,214.67 521.28,214.96 C521.36,215.26 520.96,216.40 520.40,217.50 C519.84,218.60 519.45,220.51 519.55,221.74 C519.65,222.97 519.11,224.49 518.36,225.11 C517.61,225.74 517.00,225.95 517.00,225.59 C517.00,225.23 516.17,225.37 515.16,225.91 C514.08,226.49 513.41,227.84 513.53,229.20 C513.82,232.56 512.45,233.72 508.54,233.46 C505.43,233.25 504.97,233.56 503.99,236.53 C503.23,238.83 501.97,240.16 499.87,240.89 C498.21,241.47 497.14,242.41 497.48,242.97 C497.83,243.54 497.63,244.00 497.02,244.00 C496.24,244.00 496.26,244.61 497.06,246.12 C497.86,247.61 497.87,248.04 497.10,247.56 C496.49,247.19 496.00,247.39 496.00,248.00 C496.00,248.61 495.59,248.86 495.09,248.55 C494.58,248.24 493.98,248.55 493.76,249.23 C493.17,250.98 489.75,247.47 490.18,245.57 C490.50,244.15 507.00,225.29 518.75,212.92 C522.19,209.30 525.00,206.04 525.00,205.67 C525.00,204.75 375.96,204.96 373.60,205.89 C371.78,206.60 303.44,324.77 304.33,325.66 C304.55,325.88 309.74,324.28 315.87,322.09 L 327.00 318.12 L 327.00 321.10 C327.00,325.82 323.78,328.46 317.69,328.74 C314.84,328.87 310.70,329.10 308.50,329.25 C306.30,329.41 303.32,329.30 301.87,329.02 ZM 595.00 323.94 C595.00,319.72 595.02,319.69 597.42,320.61 C598.40,320.98 599.00,322.42 599.00,324.39 C599.00,326.86 598.55,327.61 597.00,327.73 C595.31,327.85 595.00,327.26 595.00,323.94 ZM 595.73 311.40 C594.68,310.35 594.86,304.76 596.00,303.00 C596.80,301.76 596.97,301.84 597.00,303.50 C597.03,305.16 597.20,305.24 598.00,304.00 C598.71,302.90 598.97,303.66 598.98,306.81 C598.99,309.18 598.59,310.86 598.09,310.55 C597.58,310.24 597.01,310.47 596.81,311.06 C596.62,311.64 596.13,311.80 595.73,311.40 ZM 595.72 287.72 C594.69,285.02 594.88,214.00 595.93,214.00 C596.44,214.00 597.61,214.76 598.54,215.68 C600.02,217.16 600.14,219.00 599.57,230.93 C598.68,249.50 597.87,256.27 596.92,253.00 C596.37,251.10 596.18,251.71 596.11,255.50 C596.01,261.38 596.87,265.20 598.11,264.43 C598.61,264.12 599.00,269.21 599.00,276.00 C599.00,283.07 598.62,287.88 598.09,287.55 C597.58,287.24 596.99,287.53 596.77,288.19 C596.51,288.96 596.13,288.79 595.72,287.72 ZM 594.99 206.22 C594.98,201.23 593.26,193.82 590.78,188.00 C588.59,182.86 580.39,174.24 575.17,171.58 C570.81,169.37 570.71,169.22 572.81,168.10 C574.46,167.22 575.00,167.21 575.00,168.09 C575.00,168.87 575.40,168.93 576.25,168.26 C579.97,165.32 585.34,166.97 585.61,171.13 C585.80,174.05 586.92,176.10 588.24,175.93 C591.28,175.53 592.13,176.10 591.83,178.36 C591.66,179.66 592.19,181.55 593.01,182.55 C594.19,184.00 594.21,184.21 593.10,183.54 C592.14,182.96 591.92,183.06 592.40,183.85 C593.32,185.33 597.00,185.35 597.00,183.88 C597.00,183.13 597.53,183.19 598.59,184.07 C599.65,184.96 599.99,186.31 599.61,188.19 C599.27,189.89 599.48,191.00 600.13,191.00 C600.77,191.00 600.92,191.72 600.50,192.75 C599.37,195.50 599.29,198.34 600.29,200.37 C601.34,202.53 598.61,209.55 596.37,210.41 C595.33,210.81 595.00,209.81 594.99,206.22 ZM 214.92 175.75 C214.88,175.61 214.77,174.04 214.67,172.26 C214.50,169.11 216.13,167.35 218.09,168.56 C218.59,168.87 219.00,168.67 219.00,168.13 C219.00,166.79 222.99,167.32 225.66,169.00 C227.77,170.34 227.72,170.43 223.37,173.18 C219.72,175.50 215.26,176.85 214.92,175.75 ZM 230.35 165.40 C230.52,160.34 231.61,159.63 237.20,160.91 C239.23,161.38 241.15,161.52 241.45,161.22 C241.75,160.91 242.00,161.19 242.00,161.83 C242.00,162.48 243.24,162.99 244.75,162.98 C246.89,162.97 247.17,162.76 246.00,162.00 C245.02,161.37 257.29,161.07 281.50,161.15 C301.85,161.21 316.92,161.56 315.00,161.91 C311.82,162.51 312.09,162.63 317.90,163.28 C329.27,164.56 333.78,164.22 336.09,161.91 C337.48,160.52 338.91,160.01 340.34,160.39 C341.53,160.71 349.70,161.06 358.50,161.17 C371.32,161.32 373.01,161.49 367.00,162.00 L 359.50 162.64 L 366.00 162.83 C369.58,162.93 374.78,163.29 377.56,163.63 C381.42,164.09 382.99,163.86 384.18,162.67 C385.33,161.53 388.27,161.03 395.12,160.81 C410.91,160.29 433.61,160.96 432.14,161.89 C430.99,162.62 430.99,162.84 432.14,163.30 C432.89,163.60 431.92,163.93 430.00,164.04 C428.08,164.14 427.29,164.44 428.25,164.69 C429.21,164.94 430.00,165.54 430.00,166.02 C430.00,166.52 388.23,166.91 333.54,166.92 C251.90,166.93 236.56,167.16 233.64,168.38 L 230.20 169.81 L 230.35 165.40 ZM 559.25 167.25 C552.84,166.90 550.85,165.46 555.75,164.72 C557.26,164.49 555.80,164.27 552.50,164.23 C549.20,164.19 547.06,164.38 547.75,164.66 C552.44,166.56 543.12,166.94 492.00,166.97 C454.78,166.98 435.00,166.65 435.00,166.00 C435.00,165.45 435.48,165.00 436.06,165.00 C436.64,165.00 436.84,164.55 436.50,164.00 C436.14,163.41 437.25,162.97 439.19,162.93 C441.91,162.87 442.14,162.71 440.50,162.04 C437.98,161.00 455.15,160.39 474.97,160.80 C484.40,161.00 488.93,161.43 487.97,162.04 C486.97,162.67 488.43,162.95 492.50,162.91 C496.77,162.88 497.92,162.61 496.50,162.00 C494.90,161.31 495.27,161.13 498.32,161.07 C500.47,161.03 502.80,161.66 503.64,162.50 C505.55,164.41 509.06,164.42 511.56,162.53 C512.63,161.72 515.08,161.06 517.00,161.05 C519.62,161.03 520.12,161.27 519.00,162.00 C517.80,162.77 518.00,162.99 520.00,163.08 L 522.50 163.20 L 520.00 164.00 C518.38,164.52 520.65,164.78 526.50,164.74 C534.09,164.69 534.72,164.58 530.50,164.00 C527.75,163.62 526.62,163.24 528.00,163.14 C530.00,163.00 530.20,162.78 529.00,162.00 C527.96,161.33 529.86,161.03 535.19,161.02 C539.86,161.01 543.16,160.55 543.59,159.86 C544.58,158.25 564.59,159.43 566.29,161.19 C567.78,162.74 567.93,167.28 566.50,167.46 C565.95,167.54 562.69,167.44 559.25,167.25 Z" fill="rgb(252,252,252)"/>
</g>
</svg>